SplineFontDB: 3.0
FontName: russianroadsign-medium
FullName: Russian Road Sign
FamilyName: Russian Road Sign
Weight: Medium
Copyright: CC-BY-SA. Based on standards GOST 10807-78 and GOST R 52290-2004. Digitized by Alexander Sapozhnikov http://shoorick.ru
UComments: "2013-1-26: Created." 
Version: 001.000
ItalicAngle: 0
UnderlinePosition: -100
UnderlineWidth: 50
Ascent: 800
Descent: 200
LayerCount: 2
Layer: 0 0 "Back"  1
Layer: 1 0 "Fore"  0
XUID: [1021 632 699837233 8314019]
FSType: 0
OS2Version: 0
OS2_WeightWidthSlopeOnly: 0
OS2_UseTypoMetrics: 1
CreationTime: 1359148831
ModificationTime: 1509824117
OS2TypoAscent: 0
OS2TypoAOffset: 1
OS2TypoDescent: 0
OS2TypoDOffset: 1
OS2TypoLinegap: 90
OS2WinAscent: 0
OS2WinAOffset: 1
OS2WinDescent: 0
OS2WinDOffset: 1
HheadAscent: 0
HheadAOffset: 1
HheadDescent: 0
HheadDOffset: 1
OS2Vendor: 'PfEd'
Lookup: 260 0 0 "Mark to base attachment lookup 0"  {"Mark to base attachment lookup 0-1"  } ['Mark' ('DFLT' <'dflt' > 'cyrl' <'dflt' > 'grek' <'dflt' > 'latn' <'dflt' > ) ]
MarkAttachClasses: 1
DEI: 91125
LangName: 1033 
Encoding: UnicodeFull
UnicodeInterp: none
NameList: Adobe Glyph List
DisplaySize: -72
AntiAlias: 1
FitToEm: 1
WinInfo: 153 17 10
BeginPrivate: 0
EndPrivate
AnchorClass2: "FirstAnchor"  "Mark to base attachment lookup 0-1" 
BeginChars: 1114112 432

StartChar: F
Encoding: 70 70 0
Width: 511
VWidth: 0
Flags: W
HStem: 0 21G<91 189> 238 84<189 392> 469 91<189 448>
VStem: 91 98<0 238 322 469>
LayerCount: 2
Fore
SplineSet
91 0 m 25
 91 560 l 25
 448 560 l 25
 448 469 l 25
 189 469 l 25
 189 322 l 25
 392 322 l 25
 392 238 l 25
 189 238 l 25
 189 0 l 25
 91 0 l 25
EndSplineSet
EndChar

StartChar: E
Encoding: 69 69 1
Width: 539
VWidth: 0
Flags: W
HStem: 0 84<189 448> 252 84<189 392> 469 91<189 441>
VStem: 91 98<84 252 336 469>
LayerCount: 2
Fore
SplineSet
91 0 m 25
 91 560 l 25
 441 560 l 25
 441 469 l 25
 189 469 l 25
 189 336 l 25
 392 336 l 25
 392 252 l 25
 189 252 l 17
 189 84 l 1
 448 84 l 1
 448 0 l 9
 91 0 l 25
EndSplineSet
EndChar

StartChar: H
Encoding: 72 72 2
Width: 588
VWidth: 0
Flags: W
HStem: 0 21G<91 189 399 497> 252 84<189 399> 540 20G<91 189 399 497>
VStem: 91 98<0 252 336 560> 399 98<0 252 336 560>
LayerCount: 2
Fore
SplineSet
91 0 m 25
 91 560 l 25
 189 560 l 25
 189 336 l 25
 399 336 l 25
 399 560 l 25
 497 560 l 25
 497 0 l 25
 399 0 l 25
 399 252 l 25
 189 252 l 25
 189 0 l 25
 91 0 l 25
EndSplineSet
EndChar

StartChar: A
Encoding: 65 65 3
Width: 616
VWidth: 0
Flags: W
HStem: 0 21G<70 181.25 434.75 546> 540 20G<245.5 370.5>
LayerCount: 2
Fore
SplineSet
238 196 m 1
 378 196 l 1
 308 434 l 1
 238 196 l 1
252 560 m 25
 364 560 l 25
 546 0 l 25
 441 0 l 25
 406 112 l 1
 210 112 l 1
 175 0 l 25
 70 0 l 25
 252 560 l 25
EndSplineSet
EndChar

StartChar: X
Encoding: 88 88 4
Width: 544
VWidth: 0
Flags: W
HStem: 0 21G<42 171.034 372.966 502> 540 20G<56 191.4 352.6 488>
LayerCount: 2
Fore
SplineSet
181 560 m 1
 272 385 l 25
 363 560 l 1
 488 560 l 1
 328 294 l 25
 502 0 l 1
 384 0 l 1
 272 203 l 25
 160 0 l 1
 42 0 l 1
 216 294 l 25
 56 560 l 1
 181 560 l 1
EndSplineSet
EndChar

StartChar: numbersign
Encoding: 35 35 5
Width: 694
VWidth: 0
Flags: HMW
LayerCount: 2
Fore
SplineSet
259 336 m 25
 245 224 l 25
 357 224 l 25
 371 336 l 25
 259 336 l 25
196 560 m 25
 294 560 l 25
 273 420 l 25
 385 420 l 25
 406 560 l 25
 504 560 l 25
 483 420 l 25
 560 420 l 25
 560 336 l 25
 469 336 l 25
 455 224 l 25
 532 224 l 25
 532 140 l 25
 441 140 l 25
 420 0 l 25
 322 0 l 25
 343 140 l 25
 231 140 l 25
 210 0 l 25
 112 0 l 25
 133 140 l 25
 56 140 l 25
 56 224 l 25
 147 224 l 25
 161 336 l 25
 84 336 l 25
 84 420 l 25
 175 420 l 25
 196 560 l 25
EndSplineSet
EndChar

StartChar: W
Encoding: 87 87 6
Width: 812
VWidth: 0
Flags: W
HStem: 0 21G<198.75 319.932 492.068 613.25> 540 20G<84 192.99 352.703 459.584 619.121 728>
LayerCount: 2
Fore
SplineSet
189 560 m 25
 267 169 l 1
 273 169 l 1
 357 560 l 25
 455 560 l 25
 546 163 l 1
 623 560 l 25
 728 560 l 25
 609 0 l 25
 497 0 l 25
 406 369 l 1
 315 0 l 25
 203 0 l 25
 84 560 l 25
 189 560 l 25
EndSplineSet
EndChar

StartChar: Y
Encoding: 89 89 7
Width: 588
VWidth: 0
Flags: W
HStem: 0 21G<245 343> 540 20G<70 191.697 396.303 518>
VStem: 245 98<0 224>
LayerCount: 2
Fore
SplineSet
245 0 m 25
 245 224 l 1
 70 560 l 9
 182 560 l 9
 294 329 l 1
 406 560 l 9
 518 560 l 9
 343 224 l 1
 343 0 l 17
 245 0 l 25
EndSplineSet
EndChar

StartChar: Z
Encoding: 90 90 8
Width: 560
VWidth: 0
LayerCount: 2
Fore
SplineSet
91 0 m 29
 469 0 l 29
 469 84 l 29
 210 84 l 29
 462 469 l 29
 462 560 l 29
 98 560 l 29
 98 476 l 29
 343 476 l 29
 91 91 l 29
 91 0 l 29
EndSplineSet
EndChar

StartChar: z
Encoding: 122 122 9
Width: 490
VWidth: 0
HStem: 0 77<203 385> 315 77<98 280>
VStem: 98 287<77 154>
LayerCount: 2
Fore
SplineSet
98 0 m 25
 98 77 l 25
 280 315 l 25
 98 315 l 25
 98 392 l 25
 378 392 l 25
 378 308 l 25
 203 77 l 25
 385 77 l 25
 385 0 l 25
 98 0 l 25
EndSplineSet
EndChar

StartChar: y
Encoding: 121 121 10
Width: 490
VWidth: 0
Flags: W
HStem: -168 21G<126 161> 372 20G<56 161.119 308.475 413>
LayerCount: 2
Fore
SplineSet
84 -84 m 1
 132 -107 160.101 -79.334 177.101 -43.334 c 0
 183.101 -29.334 187 -14 191 -0 c 1
 56 392 l 0
 154 392 l 0
 238 156 l 1
 315 392 l 0
 413 392 l 0
 252 -91 l 0
 231 -140 182 -168 140 -168 c 0
 112 -168 94 -165 70 -161 c 0
 84 -84 l 1
EndSplineSet
EndChar

StartChar: x
Encoding: 120 120 11
Width: 448
VWidth: 0
HStem: 0 21G<42 152 296 406> 372 20G<56 172.25 275.75 392>
LayerCount: 2
Fore
SplineSet
161 392 m 25
 224 280 l 25
 287 392 l 25
 392 392 l 25
 273 208 l 25
 406 0 l 25
 308 0 l 25
 224 140 l 25
 140 0 l 25
 42 0 l 25
 175 208 l 25
 56 392 l 25
 161 392 l 25
EndSplineSet
EndChar

StartChar: zero
Encoding: 48 48 12
Width: 504
VWidth: 0
Flags: W
HStem: -7 87<205.992 298.008> 480 87<205.992 298.008>
VStem: 63 98<138.048 421.952> 343 98<138.048 416.497>
LayerCount: 2
Fore
SplineSet
252 567 m 0
 364 567 441 439 441 280 c 0
 441 112 364 -7 252 -7 c 0
 140 -7 63 112 63 280 c 0
 63 448 140 567 252 567 c 0
252 480 m 0
 198 480 161 420 161 280 c 0
 161 140 198 80 252 80 c 0
 306 80 343 140 343 280 c 0
 343 420 306 480 252 480 c 0
EndSplineSet
EndChar

StartChar: one
Encoding: 49 49 13
Width: 322
VWidth: 0
Flags: W
HStem: 0 21G<119 217> 540 20G<114.231 217>
VStem: 119 98<0 434>
LayerCount: 2
Fore
SplineSet
11 430 m 1
 133 560 l 1
 217 560 l 1
 217 0 l 1
 119 0 l 1
 119 434 l 1
 44 387 l 1
 11 430 l 1
EndSplineSet
EndChar

StartChar: two
Encoding: 50 50 14
Width: 490
VWidth: 0
Flags: W
HStem: 0 91<182 394.543> 493 74<183.528 293.008>
VStem: 319 94<343.666 468.274>
LayerCount: 2
Fore
SplineSet
70 483 m 1
 112 531 168 567 252 567 c 0
 329 567 413 504 413 420 c 0
 413 350 400 328 364 284 c 0
 320 228 254 167 182 91 c 1
 413 91 l 1
 413 70 406 35 392 0 c 1
 56 0 l 1
 56 84 l 1
 133 154 197 221 260 296 c 0
 294 336 319 364 319 420 c 0
 319 455 287 493 238 493 c 0
 196 493 161 455 126 420 c 1
 70 483 l 1
EndSplineSet
EndChar

StartChar: three
Encoding: 51 51 15
Width: 488
VWidth: 0
Flags: W
HStem: -14 91<75.0544 277.782> 245 77<168 216.202> 490 85<135.261 275.45>
VStem: 294 98<379.493 470.275> 316 100<112.024 226.84>
LayerCount: 2
Fore
SplineSet
63 525 m 1xf0
 98 546 186 575 242 575 c 0
 312 575 392 525 392 448 c 0xf0
 392 371 336 315 280 308 c 1
 315 301 416 259 416 168 c 0
 416 84 343 -14 210 -14 c 0
 154 -14 67 10 67 10 c 1
 55 108 l 1
 89 85 150 77 196 77 c 0
 259 77 315 105 316 170 c 0xe8
 316 194 308 252 217 252 c 0
 200 252 182 252 168 245 c 1
 168 322 l 1
 238 336 294 385 294 427 c 0
 294 462 259 490 224 490 c 0
 168 490 140 476 100 442 c 1
 63 525 l 1xf0
EndSplineSet
EndChar

StartChar: four
Encoding: 52 52 16
Width: 510
VWidth: 0
Flags: W
HStem: 0 21G<308 406> 112 84<147 308 406 444> 540 20G<300 399>
VStem: 308 98<0 112> 308 91<196 413>
LayerCount: 2
Fore
SplineSet
315 560 m 1xf0
 399 560 l 1
 399 196 l 1xe8
 476 196 l 1
 444 112 l 1
 406 112 l 1
 406 0 l 1
 308 0 l 1
 308 112 l 1
 42 112 l 1
 42 196 l 1
 315 560 l 1xf0
308 413 m 1
 147 196 l 1
 308 196 l 1
 308 413 l 1
EndSplineSet
EndChar

StartChar: five
Encoding: 53 53 17
Width: 492
VWidth: 0
Flags: W
HStem: -7 91<95.3879 270.777> 294 77<181.322 284.612> 469 91<168 371>
VStem: 77 91<336 469> 322 105<130.078 253.9>
LayerCount: 2
Fore
SplineSet
371 469 m 1
 168 469 l 1
 168 336 l 1
 189 364 227 371 259 371 c 0
 336 371 427 308 427 196 c 0
 427 84 343 -7 210 -7 c 0
 147 -7 77 21 77 21 c 1
 63 112 l 1
 97 89 150 84 196 84 c 0
 252 84 322 119 322 189 c 0
 322 238 287 294 224 294 c 0
 182 294 154 259 140 252 c 1
 77 287 l 1
 77 560 l 1
 399 560 l 1
 371 469 l 1
EndSplineSet
EndChar

StartChar: six
Encoding: 54 54 18
Width: 511
VWidth: 0
Flags: W
HStem: -7 91<211.711 308.431> 280 81<223.259 325.742> 490 79<232.935 395.298>
VStem: 70 92<301 398.066> 350 91<127.089 256.135>
LayerCount: 2
Fore
SplineSet
280 569 m 0
 336 569 399 546 399 546 c 1
 413 461 l 1
 413 461 357 490 294 490 c 0
 168 490 162 301 162 301 c 1
 196 329 245 361 294 361 c 0
 336 361 441 329 441 196 c 0
 441 84 357 -7 266 -7 c 0
 147 -7 70 91 70 266 c 0
 70 420 133 569 280 569 c 0
280 280 m 0
 231 280 164 210 164 210 c 1
 164 210 189 84 253 84 c 0
 315 84 350 147 350 196 c 0
 350 252 308 280 280 280 c 0
EndSplineSet
EndChar

StartChar: seven
Encoding: 55 55 20
Width: 450
VWidth: 0
Flags: W
HStem: 0 21G<119 245> 469 91<70 308>
VStem: 119 105<0 86.961>
LayerCount: 2
Fore
SplineSet
49 469 m 1
 70 560 l 1
 406 560 l 1
 406 490 l 1
 336 350 266 203 224 0 c 5
 119 0 l 1
 147 168 231 343 308 469 c 1
 49 469 l 1
EndSplineSet
EndChar

StartChar: eight
Encoding: 56 56 21
Width: 504
VWidth: 0
Flags: W
HStem: -7 84<186.056 317.944> 487 80<192.272 311.728>
VStem: 63 98<101.086 192.563> 77 98<378.711 470.409> 329 98<378.711 470.409> 343 98<101.086 196.028>
LayerCount: 2
Fore
SplineSet
252 567 m 0xd0
 343 567 427 518 427 420 c 0
 427 322 329 294 329 294 c 1xd8
 329 294 441 252 441 154 c 0
 441 84 392 -7 252 -7 c 0
 112 -7 63 84 63 154 c 0xe4
 63 252 175 294 175 294 c 1
 175 294 77 322 77 420 c 0
 77 518 161 567 252 567 c 0xd0
252 487 m 0
 210 487 175 469 175 420 c 0
 175 378 252 336 252 336 c 1
 252 336 329 378 329 420 c 0
 329 469 294 487 252 487 c 0
252 252 m 1
 252 252 161 196 161 147 c 0
 161 98 210 77 252 77 c 0
 294 77 343 98 343 147 c 0xe4
 343 203 252 252 252 252 c 1
EndSplineSet
EndChar

StartChar: nine
Encoding: 57 57 22
Width: 504
VWidth: 0
Flags: W
HStem: -10 84<112.92 265.92> 203 84<179.149 282.903> 483 90<193.615 289.009>
VStem: 63 91<312.306 443.425> 336 98<162.165 259>
LayerCount: 2
Fore
SplineSet
210 -10 m 0
 154 -10 91 21 91 21 c 1
 80 107 l 1
 80 107 140 74 203 74 c 0
 329 74 336 259 336 259 c 1
 301 231 252 203 203 203 c 0
 161 203 63 231 63 364 c 0
 63 476 140 573 231 573 c 0
 350 573 434 483 434 308 c 0
 434 140 371 -10 210 -10 c 0
224 287 m 0
 294 287 333 356 333 356 c 1
 329 385 312 484 245 483 c 0
 183 482 154 420 154 371 c 0
 154 315 196 287 224 287 c 0
EndSplineSet
EndChar

StartChar: hyphen
Encoding: 45 45 23
Width: 336
VWidth: 0
Flags: W
HStem: 147 91<70 266>
VStem: 70 196<147 238>
LayerCount: 2
Fore
SplineSet
70 147 m 1
 70 238 l 1
 266 238 l 1
 266 147 l 1
 70 147 l 1
EndSplineSet
EndChar

StartChar: afii10030
Encoding: 1052 1052 24
Width: 700
VWidth: 0
Flags: W
HStem: 0 21G<63 169.695 530.305 637> 540 20G<123.75 233.231 466.769 576.25>
VStem: 63 105<0 62.2222> 532 105<0 62.2222>
LayerCount: 2
Fore
SplineSet
63 0 m 1
 126 560 l 1
 224 560 l 1
 350 287 l 1
 476 560 l 1
 574 560 l 1
 637 0 l 1
 532 0 l 1
 497 413 l 1
 350 84 l 1
 203 413 l 1
 168 0 l 1
 63 0 l 1
EndSplineSet
EndChar

StartChar: afii10078
Encoding: 1084 1084 25
Width: 588
VWidth: 0
Flags: W
HStem: 0 21G<77 162.538 425.462 511> 372 20G<110.214 206 382 477.786>
LayerCount: 2
Fore
SplineSet
77 0 m 1
 112 392 l 1
 196 392 l 1
 294 196 l 1
 392 392 l 1
 476 392 l 1
 511 0 l 1
 427 0 l 1
 406 273 l 1
 294 49 l 1
 182 273 l 1
 161 0 l 1
 77 0 l 1
EndSplineSet
EndChar

StartChar: P
Encoding: 80 80 26
Width: 560
VWidth: 0
Flags: W
HStem: 0 21G<91 189> 196 84<189 326.006> 476 84<189 326.006>
VStem: 91 98<0 196 280 476> 364 98<316.654 439.346>
LayerCount: 2
Fore
SplineSet
90 -0 m 5,0,-1
92 0 m 5,1,-1
190 280 m 5,2,-1
188 280 m 5,3,-1
190 280 m 5,4,-1
188 280 m 5,5,-1
91 560 m 5,6,-1
 280 560 l 6,7,-1
 413 560 462 455 462 378 c 4,10,-1
 462 301 413 196 280 196 c 6,13,-1
 189 196 l 5,14,-1
 189 0 l 5,15,-1
 91 0 l 5,16,-1
 91 560 l 5,6,-1
189 476 m 5,17,-1
 189 280 l 5,18,-1
 252 280 l 6,19,-1
 308 280 364 308 364 378 c 4,22,-1
 364 448 308 476 252 476 c 6,25,-1
 189 476 l 5,17,-1
EndSplineSet
EndChar

StartChar: R
Encoding: 82 82 27
Width: 616
VWidth: 0
Flags: W
HStem: 0 21G<98 196 409.082 539> 224 84<196 312.563> 476 84<196 334.284>
VStem: 98 98<0 224 308 476> 364 98<336.207 447.71>
LayerCount: 2
Fore
SplineSet
98 560 m 1
 287 560 l 2
 427 560 462 462 462 406 c 0
 462 329 413 280 357 259 c 1
 448 238 476 28 539 0 c 1
 420 0 l 1
 398.164 29.1143 380.103 88.499 354.031 138.812 c 0
 329.955 185.274 315 224 252 224 c 2
 196 224 l 1
 196 0 l 1
 98 0 l 1
 98 560 l 1
196 476 m 1
 196 308 l 1
 259 308 l 2
 315 308 364 332 364 392 c 0
 364 452 315 476 259 476 c 2
 196 476 l 1
EndSplineSet
EndChar

StartChar: T
Encoding: 84 84 28
Width: 532
VWidth: 0
Flags: W
HStem: 0 21G<217 315> 476 84<63 217 315 469>
VStem: 217 98<0 476>
LayerCount: 2
Fore
SplineSet
63 560 m 1
 469 560 l 1
 469 476 l 1
 315 476 l 1
 315 0 l 1
 217 0 l 1
 217 476 l 1
 63 476 l 1
 63 560 l 1
EndSplineSet
EndChar

StartChar: K
Encoding: 75 75 29
Width: 583
VWidth: 0
Flags: W
HStem: 0 21G<95 193 388.878 529> 540 20G<95 193 374.227 515>
VStem: 95 98<0 560>
LayerCount: 2
Fore
SplineSet
403 0 m 1
 194 296 l 1
 389 560 l 1
 515 560 l 1
 314 297 l 1
 529 0 l 1
 403 0 l 1
193 560 m 1
 193 373.333 193 186.667 193 0 c 1
 95 0 l 1
 95 560 l 1
 193 560 l 1
EndSplineSet
EndChar

StartChar: L
Encoding: 76 76 30
Width: 504
VWidth: 0
Flags: W
HStem: 0 84<189 441> 540 20G<91 189>
VStem: 91 98<84 560>
LayerCount: 2
Fore
SplineSet
91 0 m 1
 91 560 l 1
 189 560 l 1
 189 84 l 1
 441 84 l 1
 441 0 l 1
 91 0 l 1
EndSplineSet
EndChar

StartChar: afii10049
Encoding: 1071 1071 31
Width: 588
VWidth: 0
Flags: W
HStem: 0 21G<42 175 399 497> 224 84<274.969 399> 476 84<245.984 399>
VStem: 112 98<335.803 444.548> 399 98<0 224 308 476>
LayerCount: 2
Fore
SplineSet
497 560 m 1
 497 0 l 1
 399 0 l 1
 399 224 l 1
 336 224 l 2
 273 224 258.045 185.274 233.969 138.812 c 0
 207.897 88.499 189 49 161 0 c 1
 42 0 l 1
 61.4844 9.74219 126 133 147 182 c 0
 161.85 216.648 203.324 255.613 231 262 c 1
 161 276 112 329 112 406 c 0
 112 462 154 560 294 560 c 2
 497 560 l 1
399 476 m 1
 322 476 l 2
 266 476 210 452 210 392 c 0
 210 332 259 308 315 308 c 2
 399 308 l 1
 399 476 l 1
EndSplineSet
EndChar

StartChar: V
Encoding: 86 86 32
Width: 581
VWidth: 0
Flags: W
HStem: 0 21G<225.25 362.5> 540 20G<70 187.333 400.667 511>
LayerCount: 2
Fore
SplineSet
231 0 m 1
 70 560 l 1
 182 560 l 1
 294 140 l 1
 406 560 l 1
 511 560 l 1
 357 0 l 1
 231 0 l 1
EndSplineSet
EndChar

StartChar: I
Encoding: 73 73 33
Width: 280
VWidth: 0
Flags: W
HStem: 0 21G<91 189> 540 20G<91 189>
VStem: 91 98<0 560>
LayerCount: 2
Fore
SplineSet
91 0 m 1
 91 560 l 1
 189 560 l 1
 189 0 l 1
 91 0 l 1
EndSplineSet
EndChar

StartChar: J
Encoding: 74 74 34
Width: 392
VWidth: 0
Flags: W
HStem: -14 98<40.8785 179.116> 540 20G<196 294>
VStem: 196 98<100.835 560>
LayerCount: 2
Fore
SplineSet
42 98 m 1
 42 98 84 84 133 84 c 0
 161 84 196 105 196 153.554 c 2
 196 560 l 1
 294 560 l 1
 294 125.774 l 2
 294 59.8311 238 -14 140 -14 c 0
 105 -14 35 0 35 0 c 1
 42 98 l 1
EndSplineSet
EndChar

StartChar: M
Encoding: 77 77 35
Width: 700
VWidth: 0
Flags: W
HStem: 0 21G<84 182 524.655 616> 540 20G<84 207.892 492.108 616>
VStem: 84 98<0 406> 518 98<0 406> 525 91<0 406>
LayerCount: 2
Fore
SplineSet
84 0 m 1xf0
 84 560 l 1
 196 560 l 1
 350 301 l 1
 504 560 l 1
 616 560 l 1xe8
 616 0 l 1xf0
 525 0 l 1xe8
 518 406 l 1
 350 112 l 1
 182 406 l 1
 182 0 l 1
 84 0 l 1xf0
EndSplineSet
EndChar

StartChar: N
Encoding: 78 78 36
Width: 588
VWidth: 0
Flags: W
HStem: 0 21G<84 182 381.655 504> 540 20G<84 206.526 406 504>
VStem: 84 98<0 406> 406 98<161 560>
LayerCount: 2
Fore
SplineSet
84 0 m 1
 84 560 l 1
 196 560 l 1
 406 161 l 1
 406 560 l 1
 504 560 l 1
 504 0 l 1
 392 0 l 1
 182 406 l 1
 182 0 l 1
 84 0 l 1
EndSplineSet
EndChar

StartChar: f
Encoding: 102 102 58
Width: 364
VWidth: 0
Flags: W
HStem: 0 21G<126 210> 315 77<63 126 210 308> 483 77<215.651 312.33>
VStem: 126 84<0 315 392 475.841>
LayerCount: 2
Fore
SplineSet
126 0 m 1
 126 315 l 1
 63 315 l 1
 63 392 l 1
 126 392 l 1
 126 469 l 2
 126 518 168 560 238 560 c 0
 287 560 329 546 329 546 c 1
 308 476 l 1
 308 476 294 483 259 483 c 0
 224 483 210 462 210 441 c 2
 210 392 l 1
 308 392 l 1
 308 315 l 1
 210 315 l 1
 210 0 l 1
 126 0 l 1
EndSplineSet
EndChar

StartChar: k
Encoding: 107 107 59
Width: 474
VWidth: 0
Flags: W
HStem: 0 21G<98 182 300.464 418> 372 20G<297.393 415> 540 20G<98 182>
VStem: 98 84<0 209 214 560>
LayerCount: 2
Fore
SplineSet
98 560 m 1
 182 560 l 1
 182 214 l 1
 312 392 l 1
 415 392 l 1
 280 207 l 1
 418 0 l 1
 313 0 l 1
 182 209 l 1
 182 0 l 1
 98 0 l 1
 98 560 l 1
EndSplineSet
EndChar

StartChar: afii10074
Encoding: 1080 1080 60
Width: 504
VWidth: 0
Flags: W
HStem: 0 21G<84 187.099 336 420> 372 20G<84 168 316.895 420>
VStem: 84 84<126 392> 336 84<0 266>
LayerCount: 2
Fore
SplineSet
84 392 m 1
 168 392 l 1
 168 126 l 1
 329 392 l 1
 420 392 l 1
 420 0 l 1
 336 0 l 1
 336 266 l 1
 175 -0.142578 l 1
 84 0 l 1
 84 392 l 1
EndSplineSet
EndChar

StartChar: afii10079
Encoding: 1085 1085 61
Width: 497
VWidth: 0
Flags: W
HStem: 0 21G<91 175 322 406> 168 77<175 322> 372 20G<91 175 322 406>
VStem: 91 84<0 168 245 392> 322 84<0 168 245 392>
LayerCount: 2
Fore
SplineSet
91 392 m 1
 175 392 l 1
 175 245 l 1
 322 245 l 1
 322 392 l 1
 406 392 l 1
 406 0 l 1
 322 0 l 1
 322 168 l 1
 175 168 l 1
 175 0 l 1
 91 0 l 1
 91 392 l 1
EndSplineSet
EndChar

StartChar: afii10081
Encoding: 1087 1087 62
Width: 497
VWidth: 0
Flags: W
HStem: -0 21G<91 175 322 406> 315 77<175 322>
VStem: 91 84<0 315> 322 84<0 315>
LayerCount: 2
Fore
SplineSet
91 392 m 1
 406 392 l 1
 406 0 l 1
 322 0 l 1
 322 315 l 1
 175 315 l 1
 175 -0 l 1
 91 -0 l 1
 91 392 l 1
EndSplineSet
EndChar

StartChar: v
Encoding: 118 118 63
Width: 448
VWidth: 0
Flags: W
HStem: 0 21G<168.571 279.429> 372 20G<49 148.934 299.066 399>
LayerCount: 2
Fore
SplineSet
175 0 m 1
 49 392 l 1
 143 392 l 1
 224 119 l 1
 305 392 l 1
 399 392 l 1
 273 0 l 1
 175 0 l 1
EndSplineSet
EndChar

StartChar: w
Encoding: 119 119 64
Width: 679
VWidth: 0
Flags: W
HStem: 0 21G<169.286 278 394 503.071> 372 20G<63 162.338 289.038 389.962 516.662 616>
LayerCount: 2
Fore
SplineSet
175 0 m 1
 63 392 l 1
 157 392 l 1
 228 126 l 1
 294 392 l 1
 385 392 l 1
 451 126 l 1
 522 392 l 1
 616 392 l 1
 497 0 l 1
 399 0 l 1
 336 252 l 1
 273 0 l 1
 175 0 l 1
EndSplineSet
EndChar

StartChar: period
Encoding: 46 46 65
Width: 224
VWidth: 0
Flags: W
HStem: -5 122<65.8809 158.119>
VStem: 51 122<9.88089 102.119>
LayerCount: 2
Fore
SplineSet
173 56 m 0
 173 22.3281 145.672 -5 112 -5 c 0
 78.3281 -5 51 22.3281 51 56 c 0
 51 89.6719 78.3281 117 112 117 c 0
 145.672 117 173 89.6719 173 56 c 0
EndSplineSet
EndChar

StartChar: dotlessi
Encoding: 305 305 67
Width: 252
VWidth: 0
Flags: W
HStem: 0 21G<84 168> 372 20G<84 168>
VStem: 84 84<0 392>
LayerCount: 2
Fore
SplineSet
84 0 m 1
 84 392 l 1
 168 392 l 1
 168 0 l 1
 84 0 l 1
EndSplineSet
EndChar

StartChar: afii10028
Encoding: 1050 1050 71
Width: 588
VWidth: 0
Flags: W
HStem: 0 21G<84 182 415 546> 476 98<430.845 470.5> 540 20G<84 182>
VStem: 84 98<0 257.984 349.582 560>
LayerCount: 2
Fore
SplineSet
84 560 m 1xb0
 182 560 l 1xb0
 182 351 l 1
 183.849 349.681 184.786 349.241 189 349 c 0
 294 343 322 560 469 574 c 1
 490 476 l 1xd0
 435.896 476 422.483 446.233 392 406 c 0
 365.364 370.844 321.145 308 294 308 c 1
 364 301 385.467 249.066 420 189 c 0
 460.902 117.854 496.658 37.9551 546 0 c 1
 424 0 l 1
 406 35 350 126 315 189 c 0
 290.486 233.125 266 259 224 259 c 0
 209.964 259 182 256 182 256 c 1
 182 0 l 1
 84 0 l 1
 84 560 l 1xb0
EndSplineSet
EndChar

StartChar: afii10024
Encoding: 1046 1046 72
Width: 896
VWidth: 0
Flags: W
HStem: 0 21G<49 185.5 399 497 710.5 847> 259 87<339.773 398.907 497.093 556.227> 473 94<123.915 160.677 735.323 772.085> 540 20G<399 497>
VStem: 399 98<0 257.984 346.001 560>
LayerCount: 2
Fore
SplineSet
126 567 m 1xe8
 161 565 193 553 217 532 c 0
 290 468 315 343 392 346 c 0
 396 346 397 347 399 348 c 1
 399 560 l 1
 497 560 l 1xd8
 497 348 l 1
 499 347 500 346 504 346 c 0
 581 343 606 468 679 532 c 0
 703 553 735 565 770 567 c 1
 798 473 l 1
 744 473 728 448 700 406 c 0
 676 369 630 308 605 305 c 1
 672 301 693 249 728 189 c 0
 769 118 798 38 847 0 c 1
 721 0 l 1
 700 35 651 126 616 189 c 0
 591 233 567 259 539 259 c 0
 525 259 497 256 497 256 c 1
 497 0 l 1
 399 0 l 1
 399 256 l 1
 399 256 371 259 357 259 c 0
 329 259 305 233 280 189 c 0
 245 126 196 35 175 0 c 1
 49 0 l 1
 98 38 127 118 168 189 c 0
 203 249 224 301 291 305 c 1
 266 308 220 369 196 406 c 0
 168 448 152 473 98 473 c 1
 126 567 l 1xe8
EndSplineSet
EndChar

StartChar: afii10026
Encoding: 1048 1048 73
Width: 588
VWidth: 0
Flags: W
HStem: 0 21G<91 206.545 399 497> 540 20G<91 189 381.455 497>
VStem: 91 98<175 560> 399 98<0 385>
LayerCount: 2
Fore
SplineSet
497 0 m 1
 399 0 l 1
 399 385 l 1
 196 0 l 1
 91 0 l 1
 91 560 l 1
 189 560 l 1
 189 175 l 1
 392 560 l 1
 497 560 l 1
 497 0 l 1
EndSplineSet
EndChar

StartChar: afii10020
Encoding: 1043 1043 74
Width: 497
VWidth: 0
Flags: W
HStem: 0 21G<91 189> 476 84<189 441>
VStem: 91 98<0 476>
LayerCount: 2
Fore
SplineSet
91 0 m 1
 91 560 l 1
 441 560 l 1
 441 476 l 1
 189 476 l 1
 189 0 l 1
 91 0 l 1
EndSplineSet
EndChar

StartChar: afii10037
Encoding: 1059 1059 75
Width: 560
VWidth: 0
Flags: W
HStem: -2 86<145.417 229.691> 540 20G<56 170.048 398.381 511>
LayerCount: 2
Fore
SplineSet
147 3 m 1
 126 91 l 1
 126 91 154 84 182 84 c 0
 216.895 84 249 119 249 140 c 0
 249 161 56 560 56 560 c 1
 161 560 l 1
 294 266 l 1
 406 560 l 1
 511 560 l 1
 329 91 l 2
 308.583 38.3867 245.008 -2 196 -2 c 0
 168 -2 154 0 147 3 c 1
EndSplineSet
EndChar

StartChar: O
Encoding: 79 79 76
Width: 588
VWidth: 0
Flags: W
HStem: -14 91<231.397 356.603> 483 91<231.397 356.603>
VStem: 66 95<163.059 396.941> 427 95<163.059 396.941>
LayerCount: 2
Fore
SplineSet
294 574 m 0
 448 574 522 442 522 280 c 0
 522 118 448 -14 294 -14 c 0
 140 -14 66 118 66 280 c 0
 66 442 140 574 294 574 c 0
294 483 m 0
 217 483 161 406 161 280 c 0
 161 154 217 77 294 77 c 0
 371 77 427 154 427 280 c 0
 427 406 371 483 294 483 c 0
EndSplineSet
EndChar

StartChar: afii10033
Encoding: 1055 1055 80
Width: 588
VWidth: 0
Flags: W
HStem: 0 21G<91 189 399 497> 476 84<189 399>
VStem: 91 98<0 476> 399 98<0 476>
LayerCount: 2
Fore
SplineSet
91 560 m 1
 497 560 l 1
 497 0 l 1
 399 0 l 1
 399 476 l 1
 189 476 l 1
 189 0 l 1
 91 0 l 1
 91 560 l 1
EndSplineSet
EndChar

StartChar: afii10029
Encoding: 1051 1051 83
Width: 609
VWidth: 0
Flags: W
HStem: 0 21G<66.5957 88 420 518> 476 84<266 420>
VStem: 161 98<137.999 475.848> 168 98<199.382 476> 420 98<0 476>
LayerCount: 2
Fore
SplineSet
168 560 m 1xd8
 518 560 l 1
 518 0 l 1
 420 0 l 1
 420 476 l 1
 266 476 l 1xd8
 266 476 266 266 259 196 c 0
 239 0 70 -14 70 -14 c 1
 54 80 l 1
 54 80 148 105 161 182 c 0xe8
 168 224 168 434 168 560 c 1xd8
EndSplineSet
EndChar

StartChar: afii10040
Encoding: 1062 1062 84
Width: 588
VWidth: 0
Flags: W
HStem: 0 84<161 371> 540 20G<63 161 371 469>
VStem: 63 98<84 560> 371 98<84 560> 448 84<-112 0>
LayerCount: 2
Fore
SplineSet
63 0 m 1xe8
 63 560 l 1
 161 560 l 1
 161 84 l 1
 371 84 l 1
 371 560 l 1
 469 560 l 1
 469 84 l 1xf0
 532 84 l 1
 532 -112 l 1
 448 -112 l 1
 448 0 l 1
 63 0 l 1xe8
EndSplineSet
EndChar

StartChar: afii10042
Encoding: 1064 1064 85
Width: 784
VWidth: 0
Flags: W
HStem: 0 84<182 343 441 602> 540 20G<84 182 343 441 602 700>
VStem: 84 98<84 560> 343 98<85 560> 602 98<84 560>
CounterMasks: 1 38
LayerCount: 2
Fore
SplineSet
84 0 m 1
 84 560 l 1
 182 560 l 1
 182 84 l 1
 343 85 l 1
 343 560 l 1
 441 560 l 1
 441 84 l 1
 602 84 l 1
 602 560 l 1
 700 560 l 1
 700 0 l 1
 84 0 l 1
EndSplineSet
EndChar

StartChar: afii10043
Encoding: 1065 1065 86
Width: 819
VWidth: 0
Flags: W
HStem: 0 84<182 343 441 602> 540 20G<84 182 343 441 602 700>
VStem: 84 98<84 560> 343 98<84 560> 602 98<84 560> 679 84<-112 0>
LayerCount: 2
Fore
SplineSet
84 0 m 1xf4
 84 560 l 1
 182 560 l 1
 182 84 l 1
 343 84 l 1
 343 560 l 1
 441 560 l 1
 441 84 l 1
 602 84 l 1
 602 560 l 1
 700 560 l 1
 700 84 l 1xf8
 763 84 l 1
 763 -112 l 1
 679 -112 l 5
 679 0 l 1
 84 0 l 1xf4
EndSplineSet
EndChar

StartChar: B
Encoding: 66 66 87
Width: 560
VWidth: 0
Flags: W
HStem: 0 84<189 364.323> 252 80<189 352.297> 476 84<189 349.532>
VStem: 91 98<84 252 332 476> 371 101<349.854 458.144> 392 98<110.975 225.262>
LayerCount: 2
Fore
SplineSet
91 560 m 1xf4
 308 560 l 2
 413 560 472 480 472 406 c 0xf8
 472 364 441 315 392 294 c 1
 448 273 490 231 490 168 c 0
 490 77 413 0 309 0 c 2
 91 0 l 1
 91 560 l 1xf4
189 476 m 1
 189 332 l 1
 301 332 l 2
 343 332 371 362 371 404 c 0
 371 453 336 476 301 476 c 2
 189 476 l 1
189 252 m 1
 189 84 l 1
 308 84 l 2
 364 84 392 128 392 168 c 0xf4
 392 208 364 252 308 252 c 2
 189 252 l 1
EndSplineSet
EndChar

StartChar: C
Encoding: 67 67 88
Width: 560
VWidth: 0
Flags: W
HStem: -14 91<231.397 357.981> 483 91<231.397 357.981>
VStem: 66 95<162.98 397.02>
LayerCount: 2
Fore
SplineSet
294 574 m 0
 400.391 574 462 511 497 420 c 1
 403 385 l 1
 382 455 345.917 483 294 483 c 0
 217 483 161 406 161 280 c 0
 161 154 217 77 294 77 c 0
 345.917 77 382 105 403 175 c 1
 497 140 l 1
 462 49 400.391 -14 294 -14 c 0
 140 -14 66 117.628 66 280 c 0
 66 442.372 140 574 294 574 c 0
EndSplineSet
EndChar

StartChar: D
Encoding: 68 68 89
Width: 588
VWidth: 0
Flags: W
HStem: 0 84<189 340.992> 476 84<189 340.992>
VStem: 91 98<84 476> 420 102<172.869 387.131>
LayerCount: 2
Fore
SplineSet
280 560 m 2
 434 560 522 442 522 280 c 0
 522 118 434 0 280 0 c 2
 91 0 l 1
 91 560 l 1
 280 560 l 2
273 476 m 2
 189 476 l 1
 189 84 l 1
 273 84 l 2
 350 84 420 147 420 280 c 0
 420 413 350 476 273 476 c 2
EndSplineSet
EndChar

StartChar: G
Encoding: 71 71 90
Width: 588
VWidth: 0
Flags: W
HStem: -14 91<245.155 377.521> 0 21G<432.429 525> 196 84<322 420> 483 91<245.155 371.919>
VStem: 71 104<163.059 396.941> 420 105<119.596 196>
LayerCount: 2
Fore
SplineSet
308 574 m 0xbc
 414 574 476 511 511 420 c 1
 417 385 l 1
 396 455 360 483 308 483 c 0
 231 483 175 406 175 280 c 0
 175 154 231 77 308 77 c 0xbc
 343 77 364 84 385 105 c 0
 413 133 420 147 420 196 c 1
 322 196 l 1
 322 280 l 1
 525 280 l 1
 525 0 l 1
 441 0 l 1x7c
 420 49 l 1
 396 15 362 -14 308 -14 c 0
 154 -14 71 118 71 280 c 0
 71 442 154 574 308 574 c 0xbc
EndSplineSet
EndChar

StartChar: Q
Encoding: 81 81 91
Width: 588
VWidth: 0
Flags: W
HStem: -14 91<231.683 317.428> 483 91<231.683 356.318>
VStem: 68 95<159.783 400.217> 425 95<159.699 400.217>
LayerCount: 2
Fore
SplineSet
294 574 m 0
 448 574 520 442 520 280 c 0
 520 182 493 94 438 41 c 1
 469 -14 l 1
 388 -59 l 1
 361 -5 l 1
 341 -11 318 -14 294 -14 c 0
 140 -14 68 118 68 280 c 0
 68 442 140 574 294 574 c 0
294 483 m 0
 217 483 163 406 163 280 c 0
 163 154 217 77 294 77 c 0
 302 77 310 78 318 80 c 1
 281 154 l 1
 353 191 l 1
 388 131 l 1
 411 166 425 217 425 280 c 0
 425 406 371 483 294 483 c 0
EndSplineSet
EndChar

StartChar: S
Encoding: 83 83 92
Width: 588
VWidth: 0
Flags: W
HStem: -14 91<214.881 386.465> 483 91<249.671 405.56>
VStem: 119 98<361.096 451.521> 420 105<107.72 209.134>
LayerCount: 2
Fore
SplineSet
88 84 m 1
 157 141 l 1
 157 141 210 77 308 77 c 0
 399 77 420 133 420 154 c 0
 420 175 435 221 294 245 c 0
 133 273 119 350 119 399 c 0
 119 497 203 574 322 574 c 0
 420 574 511 497 511 497 c 1
 448 427 l 1
 448 427 406 483 322 483 c 0
 238 483 217 427 217 399 c 0
 217 350 287 338 364 322 c 0
 462 301 525 245 525 161 c 0
 525 91 448 -14 308 -14 c 0
 182 -14 88 84 88 84 c 1
EndSplineSet
EndChar

StartChar: U
Encoding: 85 85 93
Width: 588
VWidth: 0
Flags: W
HStem: -7 77<229.375 358.625> 540 20G<91 189 399 497>
VStem: 91 98<110.759 560> 399 98<110.759 560>
LayerCount: 2
Fore
SplineSet
91 560 m 1
 189 560 l 1
 189 560 189 266 189 175 c 0
 189 98 252 70 294 70 c 0
 336 70 399 98 399 175 c 0
 399 560 l 1
 497 560 l 1
 497 560 497 280 497 182 c 0
 497 175 490 -7 294 -7 c 0
 98 -7 91 175 91 182 c 0
 91 560 l 1
EndSplineSet
EndChar

StartChar: c
Encoding: 99 99 99
Width: 476
VWidth: 0
Flags: W
HStem: -14 70<199.195 307.696> 336 70<199.195 307.696>
VStem: 63 91<104.722 287.278>
LayerCount: 2
Fore
SplineSet
252 406 m 0
 330 406 393 362 420 287 c 1
 341 257 l 1
 326 308 294 336 252 336 c 0
 196 336 154 280 154 196 c 0
 154 112 196 56 252 56 c 0
 294 56 326 84 341 135 c 1
 420 105 l 1
 393 30 330 -14 252 -14 c 0
 147 -14 63 70 63 196 c 0
 63 322 147 406 252 406 c 0
EndSplineSet
EndChar

StartChar: e
Encoding: 101 101 100
Width: 504
VWidth: 0
Flags: W
HStem: -14 77<199.907 320.926> 168 70<161 342.999> 336 70<192.9 305.187>
VStem: 68 93<102.002 168 238 304.155> 343 91<199.5 299.165>
AnchorPoint: "FirstAnchor" 250 458 basechar 0
LayerCount: 2
Fore
SplineSet
252 336 m 0
 207 334 161 308 161 238 c 1
 336 238 l 2
 341 238 343 245 343 252 c 0
 343 293 293 338 252 336 c 0
413 168 m 2
 161 168 l 1
 161 84 231 63 266 63 c 0
 301 63 322 81 350 116 c 1
 418 77 l 1
 369 14 315 -14 266 -14 c 0
 161 -14 66 70 68 196 c 0
 69 257 79 301 108 336 c 0
 142 378 199 406 252 406 c 0
 350 406 434 315 434 210 c 0
 434 189 425 168 413 168 c 2
EndSplineSet
EndChar

StartChar: o
Encoding: 111 111 101
Width: 504
VWidth: 0
Flags: W
HStem: -14 70<199.469 304.531> 336 70<199.469 304.531>
VStem: 70 84<104.722 287.278> 350 84<104.722 287.278>
LayerCount: 2
Fore
SplineSet
252 406 m 0
 357 406 434 322 434 196 c 0
 434 70 357 -14 252 -14 c 0
 147 -14 70 70 70 196 c 0
 70 322 147 406 252 406 c 0
252 336 m 0
 196 336 154 280 154 196 c 0
 154 112 196 56 252 56 c 0
 308 56 350 112 350 196 c 0
 350 280 308 336 252 336 c 0
EndSplineSet
EndChar

StartChar: afii10018
Encoding: 1041 1041 110
Width: 567
VWidth: 0
Flags: W
HStem: 0 84<189 363.125> 252 84<189 361.404> 476 84<189 448>
VStem: 91 98<84 252 336 476> 392 98<112.147 223.853>
LayerCount: 2
Fore
SplineSet
91 0 m 1
 91 560 l 1
 448 560 l 1
 448 476 l 1
 189 476 l 1
 189 336 l 1
 308 336 l 2
 448 336 490 238 490 168 c 0
 490 98 434 0 294 0 c 2
 91 0 l 1
189 84 m 1
 287 84 l 2
 350 84 392 112 392 168 c 0
 392 224 350 252 287 252 c 2
 189 252 l 1
 189 84 l 1
EndSplineSet
EndChar

StartChar: afii10021
Encoding: 1044 1044 111
Width: 616
VWidth: 0
Flags: W
HStem: -98 182<49 118.671 504 567> 0 84<207 406> 476 84<273 406>
VStem: 49 84<-98 0> 175 98<255.625 476> 406 98<84 476> 483 84<-98 0>
LayerCount: 2
Fore
SplineSet
175 560 m 1xba
 504 560 l 1
 504 518 l 1
 504 84 l 1xbc
 567 84 l 1
 567 23 567 -37 567 -98 c 1
 483 -98 l 1xba
 483 0 l 1
 133 0 l 1x7a
 133 -98 l 1
 49 -98 l 1
 49 -37 49 23 49 84 c 1
 112 84 l 1
 140 154 175 341 175 476 c 2
 175 560 l 1xba
273 476 m 1
 273 343 245 175 207 84 c 1
 406 84 l 1x7c
 406 476 l 1
 273 476 l 1
EndSplineSet
EndChar

StartChar: afii10025
Encoding: 1047 1047 112
Width: 532
VWidth: 0
Flags: W
HStem: -14 91<169.725 334.375> 252 84<217 333.906> 483 91<169.983 330.377>
VStem: 357 91<359.111 457.554> 371 98<111.062 220.449>
LayerCount: 2
Fore
SplineSet
217 252 m 1xe8
 217 336 l 1
 280 336 l 2
 336 336 357 385 357 406 c 0
 357 427 343 483 266 483 c 0
 168 483 126 429 126 429 c 1
 73 511 l 1
 73 511 154 574 266 574 c 0
 378 574 448 504 448 420 c 0xf0
 448 315 350 294 350 294 c 1
 350 294 469 266 469 154 c 0
 469 84 392 -14 259 -14 c 0
 140 -14 49 63 49 63 c 1
 112 140 l 1
 112 140 161 77 266 77 c 0
 322 77 371 112 371 161 c 0
 371 217 329 252 280 252 c 2
 217 252 l 1xe8
EndSplineSet
EndChar

StartChar: afii10038
Encoding: 1060 1060 113
Width: 700
VWidth: 0
Flags: W
HStem: 0 21G<301 399> 77 77<219.251 301 399 480.749> 420 77<221.85 301 399 478.15> 540 20G<301 399>
VStem: 63 91<215.492 358.508> 301 98<0 77 154 420 497 560> 546 91<215.492 358.508>
CounterMasks: 1 0e
LayerCount: 2
Fore
SplineSet
301 560 m 1
 350 560 l 1
 399 560 l 1
 399 497 l 1
 553 497 637 392 637 287 c 0
 637 182 560 77 399 77 c 1
 399 0 l 1
 301 0 l 1
 301 77 l 1
 140 77 63 182 63 287 c 0
 63 392 147 497 301 497 c 1
 301 560 l 1
301 420 m 1
 216 420 154 364 154 287 c 0
 154 210 217 154 301 154 c 1
 301 420 l 1
399 420 m 1
 399 154 l 1
 483 154 546 210 546 287 c 0
 546 364 484 420 399 420 c 1
EndSplineSet
EndChar

StartChar: afii10041
Encoding: 1063 1063 114
Width: 560
VWidth: 0
Flags: W
HStem: 0 21G<371 469> 203 91<183.982 343.433> 540 20G<77 175 371 469>
VStem: 77 98<302.207 560> 371 98<0 238 317.972 560>
LayerCount: 2
Fore
SplineSet
77 560 m 1
 175 560 l 1
 175 351 l 2
 175 315 189 294 224 294 c 0
 280 294 336 308 371 329 c 1
 371 560 l 1
 469 560 l 1
 469 0 l 1
 371 0 l 1
 371 238 l 1
 336 210 266 203 224 203 c 0
 126 203 77 245 77 315 c 2
 77 560 l 1
EndSplineSet
EndChar

StartChar: afii10044
Encoding: 1066 1066 115
Width: 616
VWidth: 0
Flags: W
HStem: 0 84<266 435.336> 259 84<266 432.715> 476 84<49 168>
VStem: 168 98<84 259 343 476> 462 98<108.946 229.833>
LayerCount: 2
Fore
SplineSet
168 0 m 1
 168 476 l 1
 49 476 l 1
 49 560 l 1
 266 560 l 1
 266 343 l 1
 385 343 l 2
 525 343 560 252 560 182 c 0
 560 112 511 0 371 0 c 2
 168 0 l 1
266 84 m 1
 364 84 l 2
 427 84 462 112 462 168 c 0
 462 224 427 259 364 259 c 2
 266 259 l 1
 266 84 l 1
EndSplineSet
EndChar

StartChar: afii10046
Encoding: 1068 1068 116
Width: 539
VWidth: 0
Flags: W
HStem: 0 84<189 358.336> 259 84<189 355.715> 540 20G<91 189>
VStem: 91 98<84 259 343 560> 385 98<108.946 229.833>
LayerCount: 2
Fore
SplineSet
91 0 m 1
 91 560 l 1
 189 560 l 1
 189 343 l 1
 308 343 l 2
 448 343 483 252 483 182 c 0
 483 112 434 0 294 0 c 2
 91 0 l 1
189 84 m 1
 287 84 l 2
 350 84 385 112 385 168 c 0
 385 224 350 259 287 259 c 2
 189 259 l 1
 189 84 l 1
EndSplineSet
EndChar

StartChar: afii10047
Encoding: 1069 1069 117
Width: 560
VWidth: 0
Flags: W
HStem: -14 84<178.734 319.321> 252 84<217 389> 490 84<177.308 326.148>
VStem: 390 100<156.353 252 336 415.208>
LayerCount: 2
Fore
SplineSet
252 574 m 0
 406 574 490 469 490 287 c 0
 490 105 406 -14 252 -14 c 0
 161 -14 119 14 63 77 c 1
 133 147 l 1
 168 84 203 70 252 70 c 0
 322 70 385 126 390 252 c 1
 217 252 l 1
 217 336 l 1
 389 336 l 1
 378 441 331 490 252 490 c 0
 200 490 175 476 133 420 c 1
 56 483 l 1
 112 539 146 574 252 574 c 0
EndSplineSet
EndChar

StartChar: afii10048
Encoding: 1070 1070 118
Width: 816
VWidth: 0
Flags: W
HStem: -14 91<447.565 573.603> 0 21G<91 189> 245 84<189 286.022> 483 91<448.485 573.603> 540 20G<91 189>
VStem: 91 98<0 245 329 560> 284.188 93.812<160.837 245 329 397.392> 644 95<162.98 397.02>
LayerCount: 2
Fore
SplineSet
511 574 m 0x37
 665 574 739 442.372 739 280 c 0
 739 117.628 665 -14 511 -14 c 0xb7
 368.236 -14 294.228 99.1318 284.188 245 c 1
 189 245 l 1
 189 0 l 1
 91 0 l 1
 91 560 l 1
 189 560 l 1x6f
 189 329 l 1
 285.375 329 l 1
 299.088 468.042 372.838 574 511 574 c 0x37
511 483 m 0
 434 483 378 406 378 280 c 0
 378 154 434 77 511 77 c 0
 588 77 644 154 644 280 c 0
 644 406 588 483 511 483 c 0
EndSplineSet
EndChar

StartChar: afii10146
Encoding: 1122 1122 119
Width: 546
VWidth: 0
Flags: W
HStem: 0 84<189 363.125> 252 84<189 361.404> 420 84<0 91 189 308> 540 20G<91 190>
VStem: 91 98<84 252 336 419 504 560> 392 98<112.147 223.853>
LayerCount: 2
Fore
SplineSet
91 0 m 1
 91 419 l 1
 0 420 l 1
 0 504 l 1
 91 503 l 1
 91 560 l 1
 190 560 l 1
 189 504 l 1
 308 504 l 1
 308 420 l 1
 189 420 l 1
 189 336 l 1
 308 336 l 2
 448 336 490 238 490 168 c 0
 490 98 434 0 294 0 c 2
 91 0 l 1
189 84 m 1
 287 84 l 2
 350 84 392 112 392 168 c 0
 392 224 350 252 287 252 c 2
 189 252 l 1
 189 84 l 1
EndSplineSet
EndChar

StartChar: afii10071
Encoding: 1105 1105 124
Width: 504
VWidth: 0
Flags: W
HStem: -14 77<199.907 320.926> 168 70<161 342.999> 336 70<192.9 305.187> 457 122<110.881 203.119 294.881 387.119>
VStem: 68 93<102.002 168 238 304.155> 96 122<471.881 564.119> 280 122<471.881 564.119> 343 91<199.5 299.165>
AnchorPoint: "FirstAnchor" 250 458 basechar 0
LayerCount: 2
Fore
SplineSet
252 336 m 0xf9
 207 334 161 308 161 238 c 1
 336 238 l 2
 341 238 343 245 343 252 c 0
 343 293 293 338 252 336 c 0xf9
413 168 m 2
 161 168 l 1
 161 84 231 63 266 63 c 0
 301 63 322 81 350 116 c 1
 418 77 l 1
 369 14 315 -14 266 -14 c 0
 161 -14 66 70 68 196 c 0
 69 257 79 301 108 336 c 0
 142 378 199 406 252 406 c 0
 350 406 434 315 434 210 c 0
 434 189 425 168 413 168 c 2
EndSplineSet
Refer: 121 168 S 1 0 0 1 46 0 2
EndChar

StartChar: afii10027
Encoding: 1049 1049 146
Width: 588
VWidth: 0
Flags: W
HStem: 0 21G<91 206.545 399 497> 540 20G<91 189 381.455 497> 602 63<232.264 355.249>
VStem: 91 98<175 560> 140 70<687.75 742> 378 63<687.75 742> 399 98<0 385>
LayerCount: 2
Fore
SplineSet
497 0 m 1xf2
 399 0 l 1
 399 385 l 1
 196 0 l 1
 91 0 l 1
 91 560 l 1
 189 560 l 1
 189 175 l 1
 392 560 l 1
 497 560 l 1
 497 0 l 1xf2
210 742 m 5xec
 210 700 238 665 294 665 c 4
 350 665 378 700 378 742 c 5
 441 742 l 5
 441 686 392 602 294 602 c 4
 196 602 140 686 140 742 c 5
 210 742 l 5xec
EndSplineSet
EndChar

StartChar: p
Encoding: 112 112 147
Width: 497
VWidth: 0
Flags: W
HStem: -168 21G<84 168> -14 70<200.689 314.512> 329 77<207.436 316.814> 372 20G<84 155.5>
VStem: 84 84<-168 35 85.9467 290.804> 84 70<350.518 392> 357 84<104.991 284.231>
LayerCount: 2
Fore
SplineSet
266 406 m 0xea
 336 406 441 364 441 196 c 0
 441 21 308 -14 266 -14 c 0
 210 -14 168 28 168 35 c 2
 168 -168 l 1
 84 -168 l 1xea
 84 392 l 1
 154 392 l 1xd6
 157 375 162 361 168 350 c 1
 168 350 196 406 266 406 c 0xea
266 329 m 0
 226 329 189 301 168 259 c 1
 168 112 l 1
 189 77 230 56 266 56 c 0
 315 56 357 112 357 196 c 0
 357 280 315 329 266 329 c 0
EndSplineSet
EndChar

StartChar: afii10077
Encoding: 1083 1083 152
Width: 504
VWidth: 0
Flags: W
HStem: 0 21G<59 150.5 329 413> 315 77<216.222 329>
VStem: 329 84<0 315>
LayerCount: 2
Fore
SplineSet
140 392 m 1
 413 392 l 1
 413 0 l 1
 329 0 l 1
 329 315 l 1
 217 315 l 1
 210 189 238 28 63 -14 c 1
 47 66 l 1
 70 70 101 87 118 119 c 0
 135 150 140 315 140 392 c 1
EndSplineSet
EndChar

StartChar: afii10085
Encoding: 1091 1091 153
Width: 448
VWidth: 0
Flags: W
HStem: -168 77<101.639 158.886> 372 20G<42 147.027 302.054 406>
LayerCount: 2
Fore
SplineSet
77 -84 m 1
 91 -91 105 -91 112 -91 c 0
 161 -91 180.673 -39.6445 192 0 c 1
 42 392 l 1
 140 392 l 1
 231 133 l 1
 308 392 l 1
 406 392 l 1
 245 -91 l 1
 224 -140 175 -168 133 -168 c 0
 126 -168 126 -168 104 -164 c 1
 77 -84 l 1
EndSplineSet
EndChar

StartChar: afii10088
Encoding: 1094 1094 154
Width: 504
VWidth: 0
Flags: W
HStem: 0 77<168 315> 372 20G<84 168 315 399>
VStem: 84 84<77 392> 315 84<77 392> 392 84<-84 0>
LayerCount: 2
Fore
SplineSet
84 392 m 1xe8
 168 392 l 1
 168 77 l 1
 315 77 l 1
 315 392 l 1
 399 392 l 1
 399 77 l 1xf0
 476 77 l 1
 476 -84 l 1
 392 -84 l 1
 392 0 l 1
 84 0 l 1
 84 392 l 1xe8
EndSplineSet
EndChar

StartChar: afii10084
Encoding: 1090 1090 155
Width: 419
VWidth: 0
Flags: W
HStem: 0 21G<168 252> 315 77<50 168 252 369>
VStem: 168 84<0 315>
LayerCount: 2
Fore
SplineSet
50 392 m 1
 369 392 l 1
 369 315 l 1
 252 315 l 1
 252 0 l 1
 168 0 l 1
 168 315 l 1
 50 315 l 1
 50 392 l 1
EndSplineSet
EndChar

StartChar: afii10068
Encoding: 1075 1075 156
Width: 420
VWidth: 0
Flags: W
HStem: 0 21G<91 175> 315 77<175 364>
VStem: 91 84<0 315>
LayerCount: 2
Fore
SplineSet
91 392 m 1
 364 392 l 1
 364 315 l 1
 175 315 l 1
 175 0 l 1
 91 0 l 1
 91 392 l 1
EndSplineSet
EndChar

StartChar: afii10076
Encoding: 1082 1082 157
Width: 504
VWidth: 0
Flags: W
HStem: 0 21G<91 175 324 455> 184 67<175.141 228.645> 329 70<366.108 394.1> 372 20G<91 175>
VStem: 91 84<0 183.999 251 392>
LayerCount: 2
Fore
SplineSet
91 392 m 1xd8
 175 392 l 1xd8
 175 252 l 1
 178 251 182 251 185 251 c 0
 248 251 304 392 392 399 c 1
 413 329 l 1xe8
 347 324 325 236 273 224 c 1
 368 204 381 69 455 0 c 1
 350 0 l 1
 298 80 277 184 196 184 c 0
 190 184 182 183 175 182 c 1
 175 0 l 1
 91 0 l 1
 91 392 l 1xd8
EndSplineSet
EndChar

StartChar: a
Encoding: 97 97 158
Width: 476
VWidth: 0
Flags: W
HStem: -14 70<176.13 267.824> 336 70<155.585 283.279>
VStem: 70 91<71.2275 156.146> 308 84<91.8617 189 252 311.627>
LayerCount: 2
Fore
SplineSet
224 406 m 0
 294 406 392 350 392 280 c 2
 392 91 l 2
 392 56 413 56 427 56 c 1
 392 -14 l 1
 343 -14 315 -7 308 49 c 1
 294 21 252 -14 196 -14 c 0
 140 -14 70 28 70 112 c 0
 70 245 308 252 308 252 c 1
 308 280 l 2
 308 301 266 336 224 336 c 0
 182 336 140 308 119 287 c 1
 77 357 l 1
 112 378 154 406 224 406 c 0
308 189 m 1
 273 175 161 182 161 119 c 0
 161 70 203 56 217 56 c 0
 259 56 308 112 308 119 c 2
 308 189 l 1
EndSplineSet
EndChar

StartChar: cacute
Encoding: 263 263 267
Width: 476
VWidth: 0
Flags: W
HStem: -14 70<199.195 307.696> 336 70<199.195 307.696>
VStem: 63 91<104.722 287.278>
LayerCount: 2
Fore
SplineSet
252 406 m 0
 330 406 393 362 420 287 c 1
 341 257 l 1
 326 308 294 336 252 336 c 0
 196 336 154 280 154 196 c 0
 154 112 196 56 252 56 c 0
 294 56 326 84 341 135 c 1
 420 105 l 1
 393 30 330 -14 252 -14 c 0
 147 -14 63 70 63 196 c 0
 63 322 147 406 252 406 c 0
EndSplineSet
EndChar

StartChar: ccircumflex
Encoding: 265 265 268
Width: 476
VWidth: 0
Flags: W
HStem: -14 70<199.195 307.696> 336 70<199.195 307.696>
VStem: 63 91<104.722 287.278>
LayerCount: 2
Fore
SplineSet
252 406 m 0
 330 406 393 362 420 287 c 1
 341 257 l 1
 326 308 294 336 252 336 c 0
 196 336 154 280 154 196 c 0
 154 112 196 56 252 56 c 0
 294 56 326 84 341 135 c 1
 420 105 l 1
 393 30 330 -14 252 -14 c 0
 147 -14 63 70 63 196 c 0
 63 322 147 406 252 406 c 0
EndSplineSet
EndChar

StartChar: ccaron
Encoding: 269 269 270
Width: 476
VWidth: 0
Flags: W
HStem: -14 70<199.195 307.696> 336 70<199.195 307.696>
VStem: 63 91<104.722 287.278>
LayerCount: 2
Fore
SplineSet
252 406 m 0
 330 406 393 362 420 287 c 1
 341 257 l 1
 326 308 294 336 252 336 c 0
 196 336 154 280 154 196 c 0
 154 112 196 56 252 56 c 0
 294 56 326 84 341 135 c 1
 420 105 l 1
 393 30 330 -14 252 -14 c 0
 147 -14 63 70 63 196 c 0
 63 322 147 406 252 406 c 0
EndSplineSet
EndChar

StartChar: uni0254
Encoding: 596 596 271
Width: 476
VWidth: 0
Flags: W
HStem: -14 70<175.304 283.805> 336 70<175.304 283.805>
VStem: 329 91<104.722 287.278>
LayerCount: 2
Fore
SplineSet
231 406 m 0
 153 406 90 362 63 287 c 1
 142 257 l 1
 157 308 189 336 231 336 c 0
 287 336 329 280 329 196 c 0
 329 112 287 56 231 56 c 0
 189 56 157 84 142 135 c 1
 63 105 l 1
 90 30 153 -14 231 -14 c 0
 336 -14 420 70 420 196 c 0
 420 322 336 406 231 406 c 0
EndSplineSet
EndChar

StartChar: afii10072
Encoding: 1078 1078 272
Width: 700
VWidth: 0
Flags: W
HStem: 0 21G<49 175 308 392 525 651> 315 84<96.25 134.74 565.26 603.75> 372 20G<308 392>
VStem: 308 84<0 176.203 245 392>
LayerCount: 2
Fore
SplineSet
98 399 m 1xd0
 210 392 245 231 308 245 c 1
 308 392 l 1
 392 392 l 1xb0
 392 245 l 1
 455 231 490 392 602 399 c 1
 623 315 l 1
 546 315 528 229 476 217 c 1
 531 213 566 168 588 112 c 0
 602 77 637 21 651 0 c 1
 553 0 l 1
 497 86 476 189 392 175 c 1
 392 0 l 1
 308 0 l 1
 308 175 l 1
 224 189 203 86 147 0 c 1
 49 0 l 1
 63 21 98 77 112 112 c 0
 134 168 169 213 224 217 c 1
 172 229 154 315 77 315 c 1
 98 399 l 1xd0
EndSplineSet
EndChar

StartChar: afii10090
Encoding: 1096 1096 273
Width: 658
VWidth: 0
Flags: W
HStem: 0 77<168 287 371 490> 372 20G<84 168 287 371 490 574>
VStem: 84 84<77 392> 287 84<77 392> 490 84<77 392>
CounterMasks: 1 38
LayerCount: 2
Fore
SplineSet
287 392 m 1
 371 392 l 1
 371 77 l 1
 490 77 l 1
 490 392 l 1
 574 392 l 1
 574 0 l 1
 84 0 l 1
 84 392 l 1
 168 392 l 1
 168 77 l 1
 287 77 l 1
 287 392 l 1
EndSplineSet
EndChar

StartChar: afii10091
Encoding: 1097 1097 274
Width: 672
VWidth: 0
Flags: W
HStem: 0 77<168 287 371 490> 372 20G<84 168 287 371 490 574>
VStem: 84 84<77 392> 287 84<77 392> 490 84<77 392> 560 84<-84 0>
LayerCount: 2
Fore
SplineSet
287 392 m 1xf4
 371 392 l 1
 371 77 l 1
 490 77 l 1
 490 392 l 1
 574 392 l 1
 574 77 l 1xf8
 644 77 l 1
 644 -84 l 1
 560 -84 l 1
 560 0 l 1
 84 0 l 1
 84 392 l 1
 168 392 l 1
 168 77 l 1
 287 77 l 1
 287 392 l 1xf4
EndSplineSet
EndChar

StartChar: afii10095
Encoding: 1101 1101 275
Width: 450
VWidth: 0
Flags: W
HStem: -14 70<145.706 255.677> 168 63<168 294> 336 70<145.383 258.276>
VStem: 294 86<96.2825 168 231 296.015>
LayerCount: 2
Fore
SplineSet
203 406 m 0
 308 406 380 322 380 196 c 0
 380 70 308 -14 203 -14 c 0
 145 -14 92 9 59 53 c 1
 119 105 l 1
 140 77 169 56 203 56 c 0
 253 56 294 105 294 168 c 1
 168 168 l 1
 168 231 l 1
 294 231 l 1
 294 294 251 336 203 336 c 0
 169 336 140 315 119 287 c 1
 62 339 l 1
 97 381 146 406 203 406 c 0
EndSplineSet
EndChar

StartChar: afii10066
Encoding: 1073 1073 276
Width: 511
VWidth: 0
Flags: W
HStem: -14 70<210.951 311.171> 322 70<209.737 310.937> 476 84<201.946 405.475> 554 20G<364 433.308>
VStem: 70 77<322 407.141> 350 91<97.4983 281.507>
LayerCount: 2
Fore
SplineSet
441 574 m 1xdc
 406 483 l 1
 395 480 371 476 357 476 c 2
 252 476 l 2
 194 476 147 399 147 322 c 1
 161 350 196 392 266 392 c 0
 364 392 441 322 441 189 c 0
 441 91 378 -14 259 -14 c 0
 105 -14 70 147 70 280 c 0
 70 394 91 560 266 560 c 2
 364 560 l 2xec
 413 560 441 574 441 574 c 1xdc
259 322 m 0
 224 322 168 287 168 189 c 0
 168 91 224 56 259 56 c 0
 301 56 350 91 350 189 c 0
 350 287 301 322 259 322 c 0
EndSplineSet
EndChar

StartChar: afii10069
Encoding: 1076 1076 277
Width: 497
VWidth: 0
Flags: W
HStem: -84 161<35 82.9781 413 462> 0 77<166 329> 315 77<215.311 329>
VStem: 35 84<-84 0> 329 84<77 315> 385 77<-84 0>
LayerCount: 2
Fore
SplineSet
133 392 m 1xb4
 413 392 l 1
 413 77 l 1xb8
 462 77 l 1
 462 -84 l 1
 385 -84 l 1xb4
 385 0 l 1
 119 0 l 1x74
 119 -84 l 1
 35 -84 l 1
 35 77 l 1
 75 77 l 1
 110 158 133 252 133 392 c 1xb4
217 315 m 1
 210 237 201 145 166 77 c 1
 329 77 l 1x78
 329 315 l 1
 217 315 l 1
EndSplineSet
EndChar

StartChar: afii10073
Encoding: 1079 1079 278
Width: 465
VWidth: 0
Flags: W
HStem: -14 70<148.94 290.697> 168 63<203 295.874> 329 70<147.413 284.129>
VStem: 301 84<235.486 312.164> 308 91<74.2501 159.536>
LayerCount: 2
Fore
SplineSet
224 399 m 0xf0
 322 399 385 361 385 294 c 0xf0
 385 245 350 210 317 200 c 1
 352 193 399 168 399 105 c 0
 399 21 326 -14 238 -14 c 0
 180 -14 102 9 60 51 c 1
 112 108 l 1
 140 69 204 56 238 56 c 0
 266 56 308 77 308 112 c 0xe8
 308 140 294 168 259 168 c 2
 203 168 l 1
 203 231 l 1
 259 231 l 2
 287 231 301 252 301 273 c 0
 301 315 252 329 224 329 c 0
 175 329 147 308 122 290 c 1
 84 364 l 1
 119 385 167 399 224 399 c 0xf0
EndSplineSet
EndChar

StartChar: afii10089
Encoding: 1095 1095 279
Width: 476
VWidth: 0
Flags: W
HStem: 0 21G<301 385> 119 70<164.477 287.981> 372 20G<77 161 301 385>
VStem: 77 84<194.364 392> 301 84<0 147 206.824 392>
LayerCount: 2
Fore
SplineSet
77 392 m 1
 161 392 l 1
 161 224 l 2
 161 203 185 189 203 189 c 0
 245 189 287 210 301 217 c 1
 301 392 l 1
 385 392 l 1
 385 0 l 1
 301 0 l 1
 301 147 l 1
 266 126 231 119 196 119 c 0
 133 119 77 147 77 224 c 2
 77 392 l 1
EndSplineSet
EndChar

StartChar: afii10092
Encoding: 1098 1098 280
Width: 501
VWidth: 0
Flags: W
HStem: 0 77<217 353.404> 175 77<217 353.404> 315 77<42 133>
VStem: 133 84<77 175 252 315> 364 81<87.2884 164.712>
LayerCount: 2
Fore
SplineSet
42 392 m 1
 217 392 l 1
 217 252 l 1
 308 252 l 2
 406 252 445 189 445 126 c 0
 445 63 406 0 308 0 c 2
 133 0 l 1
 133 315 l 1
 42 315 l 1
 42 392 l 1
217 175 m 1
 217 77 l 1
 315 77 l 2
 343 77 364 103 364 126 c 0
 364 149 343 175 315 175 c 2
 217 175 l 1
EndSplineSet
EndChar

StartChar: afii10094
Encoding: 1100 1100 281
Width: 473
VWidth: 0
Flags: W
HStem: 0 77<182 325.404> 175 77<182 325.404> 372 20G<98 182>
VStem: 98 84<77 175 252 392> 336 81<87.2884 164.712>
LayerCount: 2
Fore
SplineSet
98 392 m 1
 182 392 l 1
 182 252 l 1
 280 252 l 2
 378 252 417 189 417 126 c 0
 417 63 378 0 280 0 c 2
 98 0 l 1
 98 392 l 1
182 175 m 1
 182 77 l 1
 287 77 l 2
 315 77 336 103 336 126 c 0
 336 149 315 175 287 175 c 2
 182 175 l 1
EndSplineSet
EndChar

StartChar: afii10096
Encoding: 1102 1102 283
Width: 672
VWidth: 0
Flags: W
HStem: -14 70<375.595 478.225> 0 21G<91 175> 168 63<175 255.282> 336 70<376.099 478.225> 372 20G<91 175>
VStem: 91 84<0 168 231 392> 253 83<101.623 168 231 290.746> 518 84<99.9023 292.098>
LayerCount: 2
Fore
SplineSet
427 406 m 0x37
 532 406 602 322 602 196 c 0
 602 70 532 -14 427 -14 c 0xb7
 330 -14 263 58 253 168 c 1
 175 168 l 1
 175 0 l 1
 91 0 l 1
 91 392 l 1
 175 392 l 1x6f
 175 231 l 1
 254 231 l 1
 266 337 332 406 427 406 c 0x37
427 336 m 0
 371 336 336 280 336 196 c 0
 336 112 371 56 427 56 c 0
 483 56 518 112 518 196 c 0
 518 280 483 336 427 336 c 0
EndSplineSet
EndChar

StartChar: afii10194
Encoding: 1123 1123 284
Width: 501
VWidth: 0
Flags: W
HStem: 0 77<217 353.404> 175 77<217 353.404> 315 77<42 133 217 308> 540 20G<133 217>
VStem: 133 84<77 175 252 315 392 560> 364 81<87.2884 164.712>
LayerCount: 2
Fore
SplineSet
133 560 m 1
 217 560 l 1
 217 392 l 1
 308 392 l 1
 308 315 l 1
 217 315 l 1
 217 252 l 1
 308 252 l 2
 406 252 445 189 445 126 c 0
 445 63 406 0 308 0 c 2
 133 0 l 1
 133 315 l 1
 42 315 l 1
 42 392 l 1
 133 392 l 1
 133 560 l 1
217 175 m 1
 217 77 l 1
 315 77 l 2
 343 77 364 103 364 126 c 0
 364 149 343 175 315 175 c 2
 217 175 l 1
EndSplineSet
EndChar

StartChar: afii10067
Encoding: 1074 1074 285
Width: 478
VWidth: 0
Flags: W
HStem: 0 77<168 314.766> 168 63<168 310.037> 315 77<168 308.208>
VStem: 84 84<77 168 231 315> 315 84<236.075 309.428> 322 86<82.8365 159.921>
LayerCount: 2
Fore
SplineSet
84 392 m 1xf4
 168 392 l 1
 280 392 l 2
 350 392 399 343 399 280 c 0xf8
 399 245 385 212 336 198 c 1
 385 184 408 147 408 112 c 0
 408 14 322 0 273 0 c 2
 84 0 l 1
 84 392 l 1xf4
168 315 m 1
 168 231 l 1
 273 231 l 2
 301 231 315 252 315 273 c 0
 315 294 301 315 273 315 c 2
 168 315 l 1
168 168 m 1
 168 77 l 1
 273 77 l 2
 301 77 322 91 322 119 c 0xf4
 322 147 301 168 273 168 c 2
 168 168 l 1
EndSplineSet
EndChar

StartChar: afii10075
Encoding: 1081 1081 286
Width: 504
VWidth: 0
Flags: W
HStem: 0 21G<84 187.105 336 420> 372 20G<84 168 316.895 420> 448 56<199.874 300.378> 540 20G<112 185.5 315 392>
VStem: 84 84<126 392> 112 70<522.082 560> 336 84<0 266>
LayerCount: 2
Fore
SplineSet
84 392 m 1xfa
 168 392 l 1
 168 126 l 1
 329 392 l 1
 420 392 l 1
 420 0 l 1
 336 0 l 1
 336 266 l 1
 175 -0 l 1
 84 0 l 1
 84 392 l 1xfa
112 560 m 1xf6
 182 560 l 1
 189 525 217 504 252 504 c 0
 287 504 308 525 322 560 c 1
 392 560 l 1
 392 560 378 448 252 448 c 0
 126 448 112 560 112 560 c 1xf6
EndSplineSet
EndChar

StartChar: afii10110
Encoding: 1118 1118 287
Width: 448
VWidth: 0
Flags: W
HStem: -168 77<101.639 158.934> 372 20G<42 147.027 302.054 406> 448 56<178.874 279.378> 540 20G<91 164.5 294 371>
VStem: 91 70<522.082 560>
LayerCount: 2
Fore
SplineSet
77 -84 m 1
 91 -91 105 -91 112 -91 c 0
 161 -91 181 -40 192 0 c 1
 42 392 l 1
 140 392 l 1
 231 133 l 1
 308 392 l 1
 406 392 l 1
 245 -91 l 1
 224 -140 175 -168 133 -168 c 0
 126 -168 126 -168 104 -164 c 1
 77 -84 l 1
91 560 m 1
 161 560 l 1
 168 525 196 504 231 504 c 0
 266 504 287 525 301 560 c 1
 371 560 l 1
 371 560 357 448 231 448 c 0
 105 448 91 560 91 560 c 1
EndSplineSet
EndChar

StartChar: afii10086
Encoding: 1092 1092 288
Width: 672
VWidth: 0
Flags: W
HStem: -168 21G<294 378> -1 71<209.908 294 378 462.092> 322 71<210.373 294 378 461.627>
VStem: 70 84<126.109 265.891> 294 84<-168 -1 70 322 393 546> 518 84<126.109 265.891>
CounterMasks: 1 1c
LayerCount: 2
Fore
SplineSet
294 546 m 1
 378 546 l 1
 378 393 l 1
 429 395 601 386 602 196 c 0
 603 6 429 -3 378 -1 c 1
 378 -168 l 1
 294 -168 l 1
 294 -1 l 1
 243 -3 69 6 70 196 c 0
 71 386 243 395 294 393 c 1
 294 546 l 1
273 322 m 2
 217 322 154 273 154 196 c 0
 154 119 217 70 273 70 c 2
 294 70 l 1
 294 322 l 1
 273 322 l 2
378 322 m 1
 378 70 l 1
 399 70 l 2
 455 70 518 119 518 196 c 0
 518 273 455 322 399 322 c 2
 378 322 l 1
EndSplineSet
EndChar

StartChar: afii10097
Encoding: 1103 1103 289
Width: 490
VWidth: 0
Flags: W
HStem: 0 21G<42 150 308 392> 159 65<219.594 307.581> 315 77<190.148 308>
VStem: 91 91<232.799 307.248> 308 84<0 158.985 224 315>
LayerCount: 2
Fore
SplineSet
392 0 m 1
 308 0 l 1
 308 156 l 1
 299 159 294 159 280 159 c 0
 182 159 160 32 140 0 c 1
 42 0 l 1
 84 49 105 168 175 178 c 1
 133 189 91 227 91 273 c 0
 91 329 126 392 224 392 c 2
 392 392 l 1
 392 0 l 1
308 224 m 1
 308 315 l 1
 231 315 l 2
 203 315 183 294 182 273 c 0
 181 250 203 224 231 224 c 2
 308 224 l 1
EndSplineSet
EndChar

StartChar: exclam
Encoding: 33 33 290
Width: 252
VWidth: 0
Flags: W
HStem: -5 122<79.7704 172.23> 543 20G<101.5 150.5>
VStem: 65 122<9.77037 102.23 260.217 550.83>
LayerCount: 2
Fore
SplineSet
187 56 m 0
 187 22 160 -5 126 -5 c 0
 92 -5 65 22 65 56 c 0
 65 90 92 117 126 117 c 0
 160 117 187 90 187 56 c 0
94 182 m 1
 94 182 67 462 67 504 c 0
 67 525 77 563 126 563 c 0
 175 563 185 525 185 504 c 0
 185 462 158 182 158 182 c 1
 94 182 l 1
EndSplineSet
EndChar

StartChar: quotesingle
Encoding: 39 39 291
Width: 245
VWidth: 0
Flags: W
HStem: 334 112<76.9218 141.584>
VStem: 142 38<305.159 338>
LayerCount: 2
Fore
SplineSet
121 446 m 0
 135 446 148 440 158 432 c 0
 164 427 180 413 180 364 c 0
 180 294 105 252 105 252 c 1
 98 269 l 1
 98 269 142 296 142 331 c 2
 142 338 l 1
 136 335 128 334 121 334 c 0
 90 334 65 359 65 390 c 0
 65 421 90 446 121 446 c 0
EndSplineSet
EndChar

StartChar: comma
Encoding: 44 44 292
Width: 224
VWidth: 0
Flags: W
HStem: -91 208
VStem: 51 122<9.65391 102.125>
LayerCount: 2
Fore
SplineSet
112 117 m 0
 145.689 117 173 89.6895 173 56 c 0
 173 46.1377 169.756 37.2324 166.5 28.5938 c 0
 161 14 105 -77 95 -91 c 1
 49 -91 l 1
 103.688 -4.4375 l 1
 73.9336 -0.379883 51 25.1328 51 56 c 0
 51 89.6895 78.3105 117 112 117 c 0
EndSplineSet
EndChar

StartChar: uni0237
Encoding: 567 567 293
Width: 252
VWidth: 0
Flags: W
HStem: -154 70<7 82.0232> 372 20G<84 168>
VStem: 84 84<-84.2342 392>
LayerCount: 2
Fore
SplineSet
84 392 m 1
 168 392 l 1
 168 -70 l 2
 168 -133 112 -168 83.9756 -167.852 c 0
 42 -167.629 21 -168 -14 -154 c 1
 7 -84 l 1
 43.1514 -89.8418 84 -91 84 -56 c 2
 84 392 l 1
84 392 m 1
 168 392 l 1
EndSplineSet
EndChar

StartChar: Delta
Encoding: 916 916 301
Width: 581
VWidth: 0
Flags: W
HStem: 0 84<204.4 383.6> 540 20G<225.25 362.5>
LayerCount: 2
Fore
SplineSet
231 560 m 1
 357 560 l 1
 511 0 l 1
 427 0 l 1
 406 0 l 1
 182 0 l 1
 168 0 l 1
 70 0 l 1
 231 560 l 1
294 420 m 1
 204.4 84 l 1
 383.6 84 l 1
 294 420 l 1
EndSplineSet
EndChar

StartChar: guillemotleft
Encoding: 171 171 312
Width: 392
VWidth: 0
Flags: W
HStem: 372 20.25G<134.833 209.5 261.333 336>
VStem: 48.5 287.5
LayerCount: 2
Fore
SplineSet
175 224 m 1
 273 392 l 1
 336 392 l 1
 238 224 l 1
 336 56 l 1
 273 56 l 1
 175 224 l 1
48.5 224.25 m 1
 146.5 392.25 l 1
 209.5 392.25 l 1
 111.5 224.25 l 1
 209.5 56.25 l 1
 146.5 56.25 l 1
 48.5 224.25 l 1
EndSplineSet
EndChar

StartChar: question
Encoding: 63 63 314
Width: 476
VWidth: 0
Flags: W
HStem: -5 122<145.067 246.933> 490 77<160.388 280.809>
VStem: 135 122<5.06738 106.933> 301 98<368.678 471.434>
LayerCount: 2
Fore
SplineSet
135 56 m 0
 135 96.6667 155.333 117 196 117 c 0
 236.667 117 257 96.6666 257 56 c 0
 257 15.3333 236.667 -5 196 -5 c 0
 155.333 -5 135 15.3333 135 56 c 0
154 175 m 1
 156.5 189.5 l 0
 158.167 199.167 162.5 212.333 169.5 229 c 0
 176.5 245.667 185.333 261 196 275 c 0
 203.333 285 216.833 300 236.5 320 c 0
 256.167 340 271.833 358 283.5 374 c 0
 295.167 390 301 405.333 301 420 c 0
 301 442.667 294 460 280 472 c 0
 266 484 249.667 490 231 490 c 0
 223.667 490 216.167 489.333 208.5 488 c 0
 200.833 486.667 194.167 485 188.5 483 c 0
 182.833 481 176.667 478 170 474 c 0
 163.333 470 158.167 466.833 154.5 464.5 c 0
 150.833 462.167 145.667 458.167 139 452.5 c 0
 132.333 446.831 128 443.164 126 441.5 c 0
 124 439.829 119.833 435.662 113.5 429 c 0
 107.167 422.332 103.667 418.665 103 418 c 1
 46 483 l 1
 102 539 163.667 567 231 567 c 0
 282.334 566.997 323.167 555.831 353.5 533.5 c 0
 383.834 511.167 399 478 399 434 c 0
 399 416.667 396.5 400.167 391.5 384.5 c 0
 386.5 368.833 378.833 353.833 368.5 339.5 c 0
 358.167 325.167 349.5 314 342.5 306 c 0
 335.5 298 325 287.5 311 274.5 c 0
 297 261.5 289 254 287 252 c 0
 280.333 245.333 274.833 239.333 270.5 234 c 0
 266.167 228.666 262.833 222.833 260.5 216.5 c 0
 258.167 210.166 256.667 206 256 204 c 0
 255.333 202 254.5 197 253.5 189 c 0
 252.5 181 252 176.333 252 175 c 1
 154 175 l 1
EndSplineSet
EndChar

StartChar: bracketleft
Encoding: 91 91 316
Width: 329
VWidth: 0
Flags: W
HStem: -84 84<168 252> 504 84<168 252>
VStem: 77 175<-84 0 504 588> 77 91<0 504>
LayerCount: 2
Fore
SplineSet
77 -84 m 5xe0
 77 588 l 5
 252 588 l 1
 252 504 l 1xe0
 168 504 l 1
 168 0 l 1xd0
 252 0 l 1
 252 -84 l 1
 77 -84 l 5xe0
EndSplineSet
EndChar

StartChar: parenleft
Encoding: 40 40 318
Width: 364
VWidth: 0
Flags: W
HStem: 554 20G<216.222 260>
VStem: 77 98<42.6673 349.333>
LayerCount: 2
Fore
SplineSet
287 539 m 1
 287 539 175 420 175 196 c 0
 175 -28 287 -147 287 -147 c 1
 224 -182 l 1
 224 -182 77 -42 77 196 c 0
 77 434 224 574 224 574 c 1
 287 539 l 1
EndSplineSet
EndChar

StartChar: emdash
Encoding: 8212 8212 320
Width: 505
VWidth: 0
Flags: W
HStem: 146 90<70 435>
LayerCount: 2
Fore
SplineSet
70 146 m 1
 70 236 l 1
 435 236 l 1
 435 146 l 1
 70 146 l 1
EndSplineSet
EndChar

StartChar: endash
Encoding: 8211 8211 321
Width: 491
VWidth: 0
Flags: W
HStem: 146 90<70 421>
LayerCount: 2
Fore
SplineSet
70 146 m 1
 70 236 l 1
 421 236 l 1
 421 146 l 1
 70 146 l 1
EndSplineSet
EndChar

StartChar: afii61352
Encoding: 8470 8470 322
Width: 1000
VWidth: 0
HStem: 0 21G<92 190 368.182 483> 225 62<546 756> 336 56<607.133 694.867> 504 56<607.133 694.867>
VStem: 92 98<0 385> 385 98<175 560> 539 56<404.133 491.867> 707 56<404.133 491.867>
LayerCount: 2
Fore
SplineSet
92 0 m 1
 92 560 l 1
 196 560 l 1
 385 175 l 1
 385 560 l 1
 483 560 l 1
 483 0 l 1
 378 0 l 1
 189 385 l 5
 190 0 l 1
 92 0 l 1
651 560 m 0
 713 560 763 510 763 448 c 0
 763 386 713 336 651 336 c 0
 589 336 539 386 539 448 c 0
 539 510 589 560 651 560 c 0
651 504 m 0
 620 504 595 479 595 448 c 0
 595 417 620 392 651 392 c 0
 682 392 707 417 707 448 c 0
 707 479 682 504 651 504 c 0
546 287 m 1
 756 287 l 1
 756 225 l 1
 546 225 l 1
 546 287 l 1
EndSplineSet
EndChar

StartChar: l
Encoding: 108 108 324
Width: 321
VWidth: 0
Flags: W
HStem: -7 77<183.43 258.985> 540 20G<98 182>
VStem: 98 84<71.3338 560>
LayerCount: 2
Fore
SplineSet
98 560 m 1
 182 560 l 1
 182 105 l 2
 182 77 196 70 217 70 c 0
 238 70 259 77 259 77 c 1
 273 0 l 1
 252 -7 231 -7 217 -7 c 2
 175 -7 l 2
 123 -7 98 19 98 63 c 2
 98 560 l 1
EndSplineSet
EndChar

StartChar: uni01C7
Encoding: 455 455 337
Width: 842
VWidth: 0
Flags: W
HStem: -14 98<490.879 629.116> 0 84<189 441> 540 20G<91 189 646 744>
VStem: 91 98<84 560> 646 98<100.835 560>
LayerCount: 2
Fore
SplineSet
91 0 m 1x78
 91 560 l 1
 189 560 l 1
 189 84 l 1
 441 84 l 1
 441 0 l 1
 91 0 l 1x78
EndSplineSet
Refer: 34 74 N 1 0 0 1 450 0 2
EndChar

StartChar: uni01C8
Encoding: 456 456 338
Width: 672
VWidth: 0
Flags: W
HStem: -154 70<427 502.023> 0 84<189 441> 372 20<504 588> 460 122<499.881 592.119> 540 20G<91 189>
VStem: 91 98<84 560> 485 122<474.881 567.119> 504 84<-84.2342 392>
LayerCount: 2
Fore
SplineSet
91 0 m 1xec
 91 560 l 1
 189 560 l 1
 189 84 l 1
 441 84 l 1
 441 0 l 1
 91 0 l 1xec
EndSplineSet
Refer: 293 567 N 1 0 0 1 420 0 2
Refer: 69 775 N 1 0 0 1 658 0 2
EndChar

StartChar: g
Encoding: 103 103 340
Width: 483
VWidth: 0
Flags: W
HStem: -179 71<138.333 307.871> -14 70<192.569 302.285> 329 77<188.999 303.589> 372 20G<355.469 427>
VStem: 56 84<114.844 277.673> 343 84<-74.5715 42 98.017 290.804> 357 70<350.497 392>
LayerCount: 2
Back
Fore
SplineSet
245 406 m 0xec
 315 406 343 350 343 350 c 1xec
 349.395 360.545 353.938 374.79 357 392 c 1
 427 392 l 1xda
 427 -21 l 2
 427 -126 336 -179 245 -179 c 0
 151.245 -179 77 -147 56 -126 c 1
 91 -63 l 1
 112 -77 175 -108 245 -108 c 0
 287 -108 343 -77 343 -21 c 2
 343 42 l 2
 343 35 308 -14 245 -14 c 0
 182 -14 56 21 56 196 c 0
 56 364 175 406 245 406 c 0xec
245 329 m 0
 196 329 140 280 140 196 c 0
 140 112 196 56 245 56 c 0
 301 56 322 98 343 133 c 1
 343 259 l 1
 322 301 285.145 329 245 329 c 0
EndSplineSet
EndChar

StartChar: h
Encoding: 104 104 346
Width: 469
VWidth: 0
Flags: W
HStem: 0 21G<91 175 329 413> 329 70<223.251 317.778> 540 20G<91 175>
VStem: 91 84<0 285.153 336 560> 329 84<0 316.976>
LayerCount: 2
Fore
SplineSet
294 399 m 0
 371 399 413 350 413 280 c 2
 413 0 l 1
 329 0 l 1
 329 273 l 2
 329 294 315 329 273 329 c 0
 232.855 329 196 294 175 252 c 1
 175 0 l 1
 91 0 l 1
 91 560 l 1
 175 560 l 1
 175 336 l 1
 175 336 224 399 294 399 c 0
EndSplineSet
EndChar

StartChar: n
Encoding: 110 110 349
Width: 469
VWidth: 0
Flags: W
HStem: 0 21G<91 175 329 413> 329 70<218.948 317.778> 372 20G<91 164.531>
VStem: 91 84<0 285.153> 91 72<346.5 392> 329 84<0 316.976>
LayerCount: 2
Fore
SplineSet
294 399 m 0xcc
 371 399 413 350 413 280 c 2
 413 0 l 1
 329 0 l 1
 329 273 l 2
 329 294 315 329 273 329 c 0
 232.855 329 196 294 175 252 c 1
 175 0 l 1
 91 0 l 1xd4
 91 392 l 1
 163 392 l 1xac
 166.062 374.79 170.605 356.545 177 346 c 1
 177 346 224 399 294 399 c 0xcc
EndSplineSet
EndChar

StartChar: m
Encoding: 109 109 355
Width: 672
VWidth: 0
Flags: W
HStem: 0 21G<84 168 308 392 532 616> 329 70<207.96 299.753 432.068 522.586> 372 20G<84 157.531>
VStem: 84 84<0 286.823> 84 72<346.5 392> 308 84<0 286.823> 532 84<0 319.822>
LayerCount: 2
Fore
SplineSet
280 399 m 0xce
 334.606 399 371 371 385 329 c 1
 399 371 452.293 399 504 399 c 0
 581 399 616 350 616 280 c 2
 616 0 l 1
 532 0 l 1
 532 273 l 2
 532 294 525 329 483 329 c 0
 442.855 329 413 294 392 252 c 1
 392 0 l 1
 308 0 l 1
 308 273 l 2
 308 294 301 329 259 329 c 0
 218.855 329 189 294 168 252 c 1
 168 0 l 1
 84 0 l 1xd6
 84 392 l 1
 156 392 l 1xae
 159.062 374.79 163.605 356.545 170 346 c 1
 170 346 210 399 280 399 c 0xce
EndSplineSet
EndChar

StartChar: afii10062
Encoding: 1038 1038 398
Width: 560
VWidth: 0
Flags: HW
HStem: -2 86<145.417 229.691> 540 20G<56 170.048 398.381 511>
LayerCount: 2
Fore
SplineSet
196 742 m 5xec
 196 700 224 665 280 665 c 4
 336 665 364 700 364 742 c 5
 427 742 l 5
 427 686 378 602 280 602 c 4
 182 602 126 686 126 742 c 5
 196 742 l 5xec
147 3 m 1
 126 91 l 1
 126 91 154 84 182 84 c 0
 217 84 249 119 249 140 c 0
 249 161 56 560 56 560 c 1
 161 560 l 1
 294 266 l 1
 406 560 l 1
 511 560 l 1
 329 91 l 2
 309 38 245 -2 196 -2 c 0
 168 -2 154 0 147 3 c 1
EndSplineSet
EndChar

StartChar: alpha
Encoding: 945 945 401
Width: 483
VWidth: 0
Flags: W
HStem: -14 70<192.569 302.285> 0 21G<343 427> 329 77<188.999 303.589> 372 20G<355.469 427>
VStem: 56 84<114.844 277.673> 343 84<0 42 98.017 290.804> 357 70<350.497 392>
LayerCount: 2
Fore
SplineSet
245 406 m 0xac
 315 406 343 350 343 350 c 1xac
 349.395 360.545 353.938 374.79 357 392 c 1
 427 392 l 1x1a
 427 0 l 1
 343 0 l 1x5c
 343 42 l 2
 343 35 308 -14 245 -14 c 0
 182 -14 56 21 56 196 c 0
 56 364 175 406 245 406 c 0xac
245 329 m 0
 196 329 140 280 140 196 c 0
 140 112 196 56 245 56 c 0
 301 56 322 98 343 133 c 1
 343 259 l 1
 322 301 285.145 329 245 329 c 0
EndSplineSet
EndChar

StartChar: r
Encoding: 114 114 403
Width: 406
VWidth: 0
Flags: W
HStem: 0 21G<84 168> 315 84<206.255 320.262> 372 20G<84 157.531>
VStem: 84 84<0 283.854> 84 72<346.5 392>
LayerCount: 2
Fore
SplineSet
280 399 m 0xc8
 308.775 399 324.951 398.501 343 385 c 1
 315 301 l 1
 301 315 280 315 259 315 c 0
 218.855 315 189 294 168 252 c 1
 168 0 l 1
 84 0 l 1xd0
 84 392 l 1
 156 392 l 1xa8
 159.062 374.79 163.605 356.545 170 346 c 1
 170 346 210 399 280 399 c 0xc8
EndSplineSet
EndChar

StartChar: t
Encoding: 116 116 409
Width: 392
VWidth: 0
Flags: W
HStem: -7 77<210.106 311.472> 315 77<63 119 203 315> 540 20G<155 203>
VStem: 119 84<78.3638 315 392 525>
LayerCount: 2
Fore
SplineSet
203 560 m 1
 203 392 l 1
 315 392 l 1
 315 315 l 1
 203 315 l 1
 203 112 l 2
 203 84 231.009 70.6221 252 70 c 0
 273.531 69.3623 301 77 312 84 c 1
 329 7 l 1
 308 0 259 -7 245 -7 c 0
 174.282 -7 119 21 119 91 c 2
 119 315 l 1
 63 315 l 1
 63 392 l 1
 119 392 l 1
 119 525 l 1
 203 560 l 1
EndSplineSet
EndChar

StartChar: s
Encoding: 115 115 412
Width: 455
VWidth: 0
Flags: W
HStem: -14 70<173.935 290.619> 336 70<191.322 315.45>
VStem: 91 87<257.143 320.423> 308 91<74.0469 146.494>
LayerCount: 2
Fore
SplineSet
70 56 m 1
 125 112.005 l 1
 140 98 196 56 238 56 c 0
 273 56 308 84 308 112 c 0
 308 133 301 154 210 168 c 0
 112.156 183.053 91 244.75 91 280 c 0
 91 322 149 406 245 406 c 0
 338 406 398 350 398 350 c 1
 343 294 l 1
 329 308 287 336 252 336 c 0
 203 336 178 307.143 178 287 c 0
 178 252 217 252 266 238 c 0
 354.528 212.706 399 189 399 119 c 0
 399 63 329 -14 245 -14 c 0
 133 -14 70 56 70 56 c 1
EndSplineSet
EndChar

StartChar: copyright
Encoding: 169 169 420
Width: 728
VWidth: 0
Flags: HW
HStem: -84 28<280.16 447.84> 1 73<294.172 437.189> 374 73<291.849 427.791> 504 28<280.16 447.84>
VStem: 56 28<140.16 307.84> 138 95<137.877 309.599> 644 28<140.16 307.84>
LayerCount: 2
Fore
SplineSet
362 447 m 0
 381 447 400 446 419 443 c 0
 485 433 543 387 570 327 c 1
 476 301 l 1
 465 328 448 349 419 364 c 1
 403 371 385 374 367 374 c 0
 335 374 304 364 280 343 c 0
 249 315 234 273 233 232 c 0
 231 189 243 143 274 111 c 0
 298 86 333 74 367 74 c 0
 375 74 381 75 389 76 c 5
 429 80 463 110 475 148 c 1
 568 119 l 1
 556 91 533 63 509 44 c 0
 469 13 417 1 367 1 c 0
 361 1 354 2 348 2 c 1
 293 4 237 22 198 62 c 0
 154 106 136 171 138 232 c 1
 139 290 160 349 202 389 c 0
 245 430 304 447 362 447 c 0
364 532 m 0
 534 532 672 394 672 224 c 0
 672 54 534 -84 364 -84 c 0
 194 -84 56 54 56 224 c 0
 56 394 194 532 364 532 c 0
364 504 m 0
 209 504 84 379 84 224 c 0
 84 69 209 -56 364 -56 c 0
 519 -56 644 69 644 224 c 0
 644 379 519 504 364 504 c 0
EndSplineSet
EndChar

StartChar: uni2080
Encoding: 8320 8320 425
Width: 420
VWidth: 0
Flags: W
HStem: -14 63<167.5 252.5> 231 63<167.5 252.624>
VStem: 63 84<69.4594 210.541> 273 84<70.3544 208.922>
LayerCount: 2
Fore
SplineSet
210 294 m 0
 308 294 361 230 357 140 c 1
 357 56 308 -14 210 -14 c 0
 112 -14 63 56 63 140 c 0
 63 224 112 294 210 294 c 0
210 231 m 0
 161 231 147 175 147 140 c 0
 147 105 161 49 210 49 c 0
 259 49 273 105 273 140 c 0
 273 175 259 231 210 231 c 0
EndSplineSet
EndChar

StartChar: uni2081
Encoding: 8321 8321 426
Width: 238
VWidth: 0
Flags: W
HStem: 0 280<98 175>
VStem: 91 84<0 189>
LayerCount: 2
Fore
SplineSet
98 280 m 1
 175 280 l 1
 175 0 l 1
 91 0 l 1
 91 189 l 1
 28 161 l 1
 7 196 l 1
 98 280 l 1
EndSplineSet
EndChar

StartChar: uni20BD
Encoding: 8381 8381 429
Width: 518
VWidth: 0
Flags: HWO
HStem: 196 84<252 325.994> 476 84<252 326.006>
VStem: 364 97.8574<316.626 438.771>
LayerCount: 2
Fore
SplineSet
308 56 m 1,0,-1
28 140 m 1,1,-1
28 140 m 1,2,-1
308 56 m 1,3,-1
188.5 476.5 m 1,4,-1
189.5 475.5 m 1,5,-1
188.5 476.5 m 1,6,-1
189.5 475.5 m 1,7,-1
91 560 m 1,8,-1
 91 280 l 1,9,-1
 28 280 l 1,10,-1
 28 196 l 1,11,-1
 91 196 l 1,12,-1
 91 140 l 1,13,-1
 28 140 l 1,14,-1
 28 56 l 1,15,-1
 91 56 l 1,16,-1
 91 0 l 1,17,-1
 123.667 -0 156.333 0 189 0 c 1,20,-1
 189 56 l 1,21,-1
 308 56 l 1,22,-1
 308 140 l 1,23,-1
 189 140 l 1,24,-1
 189 196 l 1,25,-1
 280 196 l 2,26,-1
 413 196 462 301 462 378 c 0,29,-1
 462 455 413 560 280 560 c 2,32,-1
 91 560 l 1,8,-1
189 476 m 1,33,-1
 252 476 l 2,34,-1
 308 476 364 448 364 378 c 0,37,-1
 364 308 308 280 252 280 c 2,40,-1
 189 280 l 1,41,-1
 189 476 l 1,33,-1
EndSplineSet
EndChar

StartChar: uni2082
Encoding: 8322 8322 430
Width: 392
VWidth: 0
Flags: HW
LayerCount: 2
Fore
SplineSet
56 238 m 1
 88.75 264.82 140 294 196 294 c 0
 252 294 336 273 336 203 c 0
 336 133 224 91 168 63 c 1
 336 63 l 1
 336 42 329 21 315 0 c 1
 56 0 l 1
 56 59.5898 l 1
 117.447 94.0986 196 133 224 154 c 0
 252 175 252 189 252 203 c 0
 252 217 231 231 196 231 c 0
 161 231 122.979 206.636 98 189 c 1
 56 238 l 1
EndSplineSet
EndChar

